{
	"asset":{
		"generator":"Khronos glTF Blender I/O v4.3.47",
		"version":"2.0"
	},
	"scene":0,
	"scenes":[
		{
			"name":"Scene",
			"nodes":[
				1
			]
		}
	],
	"nodes":[
		{
			"mesh":0,
			"name":"tmpjvrw3ybw.ply"
		},
		{
			"children":[
				0
			],
			"name":"world.001"
		}
	],
	"meshes":[
		{
			"name":"tmpjvrw3ybw.ply",
			"primitives":[
				{
					"attributes":{
						"POSITION":0,
						"NORMAL":1
					},
					"indices":2
				}
			]
		}
	],
	"accessors":[
		{
			"bufferView":0,
			"componentType":5126,
			"count":119976,
			"max":[
				0.9887603521347046,
				0.6098093390464783,
				0.5297987461090088
			],
			"min":[
				-0.996809720993042,
				-0.6324177384376526,
				-0.5472807884216309
			],
			"type":"VEC3"
		},
		{
			"bufferView":1,
			"componentType":5126,
			"count":119976,
			"type":"VEC3"
		},
		{
			"bufferView":2,
			"componentType":5125,
			"count":120000,
			"type":"SCALAR"
		}
	],
	"bufferViews":[
		{
			"buffer":0,
			"byteLength":1439712,
			"byteOffset":0,
			"target":34962
		},
		{
			"buffer":0,
			"byteLength":1439712,
			"byteOffset":1439712,
			"target":34962
		},
		{
			"buffer":0,
			"byteLength":480000,
			"byteOffset":2879424,
			"target":34963
		}
	],
	"buffers":[
		{
			"byteLength":3359424,
			"uri":"leopard_skull.bin"
		}
	]
}
