{
	"asset":{
		"generator":"Khronos glTF Blender I/O v4.3.47",
		"version":"2.0"
	},
	"scene":0,
	"scenes":[
		{
			"name":"Scene",
			"nodes":[
				0,
				2
			]
		}
	],
	"nodes":[
		{
			"name":"world"
		},
		{
			"mesh":0,
			"name":"tmp5r170d3y.ply"
		},
		{
			"children":[
				1
			],
			"name":"world.001"
		}
	],
	"meshes":[
		{
			"name":"tmp5r170d3y.ply",
			"primitives":[
				{
					"attributes":{
						"POSITION":0,
						"NORMAL":1
					},
					"indices":2
				}
			]
		}
	],
	"accessors":[
		{
			"bufferView":0,
			"componentType":5126,
			"count":119940,
			"max":[
				0.9954872727394104,
				0.11981168389320374,
				0.9099103212356567
			],
			"min":[
				-0.999325692653656,
				-0.12663470208644867,
				-0.919110119342804
			],
			"type":"VEC3"
		},
		{
			"bufferView":1,
			"componentType":5126,
			"count":119940,
			"type":"VEC3"
		},
		{
			"bufferView":2,
			"componentType":5125,
			"count":120000,
			"type":"SCALAR"
		}
	],
	"bufferViews":[
		{
			"buffer":0,
			"byteLength":1439280,
			"byteOffset":0,
			"target":34962
		},
		{
			"buffer":0,
			"byteLength":1439280,
			"byteOffset":1439280,
			"target":34962
		},
		{
			"buffer":0,
			"byteLength":480000,
			"byteOffset":2878560,
			"target":34963
		}
	],
	"buffers":[
		{
			"byteLength":3358560,
			"uri":"uav.bin"
		}
	]
}
