{
	"asset":{
		"generator":"Khronos glTF Blender I/O v4.3.47",
		"version":"2.0"
	},
	"scene":0,
	"scenes":[
		{
			"name":"Scene",
			"nodes":[
				1
			]
		}
	],
	"nodes":[
		{
			"mesh":0,
			"name":"tmpv8__52la.ply"
		},
		{
			"children":[
				0
			],
			"name":"world"
		}
	],
	"meshes":[
		{
			"name":"tmpv8__52la.ply",
			"primitives":[
				{
					"attributes":{
						"POSITION":0,
						"NORMAL":1,
						"TEXCOORD_0":2
					},
					"indices":3
				}
			]
		}
	],
	"accessors":[
		{
			"bufferView":0,
			"componentType":5126,
			"count":119976,
			"max":[
				0.9959599375724792,
				0.4429648220539093,
				0.3653700351715088
			],
			"min":[
				-0.9997566342353821,
				-0.4519195854663849,
				-0.37230491638183594
			],
			"type":"VEC3"
		},
		{
			"bufferView":1,
			"componentType":5126,
			"count":119976,
			"type":"VEC3"
		},
		{
			"bufferView":2,
			"componentType":5126,
			"count":119976,
			"type":"VEC2"
		},
		{
			"bufferView":3,
			"componentType":5125,
			"count":120000,
			"type":"SCALAR"
		}
	],
	"bufferViews":[
		{
			"buffer":0,
			"byteLength":1439712,
			"byteOffset":0,
			"target":34962
		},
		{
			"buffer":0,
			"byteLength":1439712,
			"byteOffset":1439712,
			"target":34962
		},
		{
			"buffer":0,
			"byteLength":959808,
			"byteOffset":2879424,
			"target":34962
		},
		{
			"buffer":0,
			"byteLength":480000,
			"byteOffset":3839232,
			"target":34963
		}
	],
	"buffers":[
		{
			"byteLength":4319232,
			"uri":"motorcycleUVs.bin"
		}
	]
}
