<?xml version="1.0" standalone="no"?>
<!DOCTYPE svg PUBLIC "-//W3C//DTD SVG 20010904//EN"
 "http://www.w3.org/TR/2001/REC-SVG-20010904/DTD/svg10.dtd">
<svg version="1.0" xmlns="http://www.w3.org/2000/svg"
 width="363.000000pt" height="385.000000pt" viewBox="0 0 363.000000 385.000000"
 preserveAspectRatio="xMidYMid meet">

<g transform="translate(0.000000,385.000000) scale(0.100000,-0.100000)"
fill="#000000" stroke="none">
<path d="M2546 3837 c-15 -11 -20 -33 -25 -110 -3 -52 -8 -97 -11 -99 -3 -3
-23 -15 -45 -28 -22 -13 -43 -29 -47 -34 -5 -7 -82 -12 -210 -13 -168 -2 -213
-6 -258 -21 -50 -17 -55 -22 -60 -52 -4 -26 -10 -34 -30 -36 -55 -8 -71 -16
-82 -39 -7 -16 -19 -25 -34 -25 -31 0 -74 -20 -74 -35 0 -7 -21 -15 -50 -19
-67 -9 -73 -24 -65 -184 l6 -124 -36 6 c-20 4 -45 16 -56 27 -10 10 -25 19
-33 19 -7 0 -19 7 -26 15 -7 8 -16 13 -20 10 -5 -3 -14 1 -22 8 -31 29 -72 37
-193 37 -133 0 -174 -9 -182 -40 -3 -11 -12 -20 -20 -20 -8 0 -31 -13 -51 -29
-37 -29 -102 -56 -102 -43 -1 21 -20 -28 -20 -50 0 -21 -5 -28 -20 -28 -52 0
-88 -38 -75 -78 3 -11 -1 -32 -10 -48 -8 -16 -15 -39 -15 -51 0 -15 -6 -23
-17 -24 -71 -3 -95 -30 -101 -108 -2 -33 -1 -80 2 -104 6 -39 11 -45 39 -54
24 -7 33 -16 37 -38 6 -37 27 -43 145 -44 94 -1 135 13 135 45 0 8 15 21 33
29 19 8 39 20 45 28 19 23 25 98 10 141 -10 32 -20 41 -45 48 -26 7 -33 14
-33 33 0 14 3 25 8 26 56 3 93 9 102 14 20 13 30 54 19 81 -13 35 -3 44 17 16
10 -15 26 -22 48 -22 31 0 34 -3 40 -40 3 -22 11 -40 16 -40 6 0 10 -16 10
-36 0 -44 21 -63 69 -64 l34 0 -6 -82 c-4 -46 -3 -89 2 -97 18 -28 175 -23
170 6 -1 5 -1 19 0 33 1 24 4 26 49 24 71 -3 71 -47 -2 -57 -47 -6 -58 -16
-60 -57 -1 -18 -9 -36 -19 -41 -11 -7 -17 -22 -17 -44 0 -35 0 -35 -45 -35
-36 0 -47 -4 -61 -25 -9 -14 -14 -34 -11 -44 9 -35 -7 -43 -81 -43 -83 0 -212
30 -212 50 0 15 -59 42 -94 42 -16 0 -27 7 -31 20 -8 26 -62 40 -161 40 -104
0 -145 -8 -151 -31 -3 -11 -19 -19 -48 -23 -33 -5 -49 -15 -69 -41 -15 -19
-39 -36 -56 -40 -17 -4 -38 -17 -46 -30 -8 -13 -33 -30 -54 -39 -21 -8 -44
-24 -49 -35 -6 -11 -33 -29 -60 -41 -47 -22 -49 -25 -61 -81 -7 -32 -10 -73
-6 -92 9 -48 -1 -65 -40 -73 -57 -11 -80 -82 -53 -165 32 -100 56 -113 208
-107 111 3 113 4 139 34 15 17 39 35 53 41 32 14 44 62 30 123 -11 48 -8 45
-43 56 -18 6 -25 13 -20 21 5 8 46 13 120 14 106 2 114 1 128 -19 10 -14 26
-22 45 -22 19 0 29 -5 29 -15 0 -23 45 -47 87 -45 21 1 59 2 85 1 45 -1 47 -2
50 -33 5 -50 33 -59 165 -54 62 2 113 3 113 1 0 -2 -5 -15 -11 -29 -17 -36 10
-76 51 -76 32 0 50 -18 30 -30 -7 -4 -29 -11 -49 -14 -33 -5 -38 -10 -50 -51
-9 -31 -11 -62 -6 -93 4 -26 9 -100 11 -165 l2 -117 -167 0 -167 0 -24 -27
c-20 -23 -23 -37 -22 -95 2 -66 -2 -74 -32 -69 -4 1 -19 -5 -32 -14 -13 -8
-24 -12 -24 -8 0 22 -30 -40 -35 -73 -7 -44 13 -118 33 -120 6 -1 16 -2 22 -3
5 0 17 -18 25 -38 9 -21 21 -41 28 -45 14 -9 172 -10 204 -2 12 3 27 19 33 35
7 16 20 29 29 29 28 1 51 26 65 74 20 65 1 113 -55 140 -28 14 -39 25 -39 42
0 28 12 32 82 26 l56 -4 12 -43 c8 -30 19 -45 34 -49 11 -3 93 -6 182 -6 182
0 190 3 196 75 l3 40 145 0 145 0 5 -40 c8 -65 20 -77 78 -78 50 -1 50 -1 56
-38 7 -42 19 -49 81 -49 l44 0 6 -173 c3 -94 7 -210 8 -257 6 -195 6 -195 75
-199 6 -1 12 -12 12 -24 0 -36 29 -55 95 -61 83 -8 165 9 165 35 0 12 12 24
35 33 19 8 35 19 35 25 0 6 16 18 35 27 l36 17 -3 71 c-3 70 -3 71 -35 80 -21
6 -36 20 -43 37 -12 28 -35 39 -82 39 -26 0 -28 3 -28 40 0 36 3 40 24 40 14
0 36 4 50 10 l26 10 0 194 c0 111 4 206 10 222 14 37 -4 80 -37 88 -15 4 -30
19 -38 41 -10 23 -25 37 -47 44 -18 6 -40 24 -49 40 -12 21 -26 30 -57 34 -31
5 -41 12 -46 31 -6 25 -48 46 -92 46 -22 0 -24 4 -24 55 l0 55 33 1 c74 1 107
17 107 51 0 41 19 58 64 58 51 0 73 20 78 68 3 33 5 34 50 37 54 3 68 10 68
34 0 27 18 38 52 33 23 -3 34 -12 42 -33 10 -27 26 -38 65 -43 9 -2 22 -14 29
-29 7 -14 28 -31 47 -38 l34 -13 0 -117 c-1 -65 2 -123 6 -129 3 -5 24 -13 46
-16 32 -5 39 -11 39 -29 0 -36 25 -48 108 -53 95 -5 162 10 162 38 0 13 14 27
40 40 50 25 60 45 60 114 0 58 -16 86 -50 86 -11 0 -31 11 -46 25 -15 14 -44
28 -65 31 l-37 6 -7 72 c-11 113 -32 199 -51 213 -10 7 -30 13 -46 13 -15 0
-37 9 -48 20 -11 11 -30 20 -42 20 -13 0 -28 4 -33 8 -21 15 -37 61 -31 86 5
22 12 26 49 28 48 1 62 1 97 -6 14 -2 28 -5 33 -5 4 -1 7 -15 7 -31 0 -34 27
-50 83 -50 29 0 33 -4 45 -41 7 -22 10 -44 7 -49 -3 -6 -6 -37 -6 -70 -1 -72
19 -110 56 -110 17 0 29 -9 40 -30 20 -39 42 -47 131 -49 79 -2 121 12 126 42
3 20 11 26 60 45 33 14 44 61 32 135 -9 54 -26 69 -116 109 -27 12 -28 15 -28
93 0 76 -2 84 -32 124 -18 23 -43 44 -55 47 -12 3 -29 16 -37 29 -9 13 -30 25
-51 29 -21 4 -41 16 -51 31 -8 13 -30 27 -47 30 -56 11 -67 16 -67 29 0 26
-51 36 -180 36 -140 0 -174 -7 -183 -39 -4 -15 -14 -21 -34 -22 -32 -1 -51 -4
-82 -14 -20 -6 -21 -3 -21 57 0 43 -5 71 -16 87 -13 17 -16 42 -15 92 l2 69
-35 0 -36 0 0 -89 c0 -71 3 -90 15 -95 13 -5 15 -25 13 -122 l-3 -117 -35 -12
c-19 -6 -40 -22 -46 -34 -7 -13 -17 -28 -23 -34 -6 -6 -11 -20 -11 -31 0 -12
-20 -47 -45 -78 -28 -36 -45 -68 -45 -85 0 -21 3 -24 12 -15 7 7 20 12 30 12
9 0 22 9 28 21 11 19 19 20 148 18 75 -1 161 -4 189 -7 52 -5 53 -5 48 -33 -4
-19 -1 -30 7 -31 7 0 18 -2 23 -3 6 -2 25 -3 43 -4 25 -1 32 -5 32 -20 0 -17
8 -20 53 -23 56 -3 69 -19 21 -29 l-29 -6 38 -17 c31 -14 37 -22 39 -49 1 -17
2 -41 3 -52 1 -11 3 -48 4 -82 l1 -63 44 0 c58 0 76 -8 87 -36 7 -19 16 -24
44 -24 34 0 35 -2 35 -36 0 -45 -20 -65 -70 -71 -30 -4 -40 -10 -40 -23 0 -10
6 -21 13 -23 9 -4 8 -8 -3 -16 -20 -14 -43 -10 -46 9 -5 36 -10 45 -33 57 -16
9 -28 10 -34 4 -7 -7 -17 -7 -29 0 -15 8 -17 14 -8 24 8 9 8 15 0 20 -5 3 -10
15 -10 26 0 18 -5 20 -40 17 -22 -1 -39 1 -40 7 0 10 9 12 58 14 18 1 22 5 17
20 -3 11 -1 22 4 25 10 7 9 14 -5 51 -8 21 -14 48 -17 78 -2 22 -59 24 -77 2
-17 -21 -42 -19 -38 3 2 10 14 18 31 20 15 2 27 7 27 12 0 13 -23 18 -42 8
-25 -13 -60 11 -54 37 5 18 0 21 -37 22 -23 1 -43 7 -45 13 -2 5 -11 10 -20
10 -13 0 -14 2 -3 13 11 10 14 10 18 0 3 -7 16 -13 30 -13 21 0 24 2 13 15 -7
8 -21 15 -31 15 -9 0 -24 7 -33 15 -8 8 -22 12 -30 9 -9 -3 -28 1 -42 11 -29
19 -38 16 -28 -9 3 -9 15 -16 25 -16 21 0 25 -15 7 -26 -6 -4 -16 0 -22 8 -6
8 -23 22 -38 32 -25 16 -29 16 -50 2 -18 -13 -19 -16 -5 -16 9 0 17 -5 17 -10
0 -14 -45 -30 -73 -27 -16 1 -23 -4 -25 -21 -2 -13 -14 -27 -27 -32 -20 -8
-23 -15 -22 -57 l1 -48 -64 -5 -65 -5 -3 -45 c-2 -24 -9 -48 -15 -53 -7 -4
-37 -6 -67 -5 -30 1 -55 -2 -55 -8 0 -5 -4 -15 -9 -22 -4 -7 -3 -19 3 -26 16
-19 3 -26 -47 -26 -48 0 -55 19 -11 31 13 4 18 7 11 8 -10 1 -12 10 -7 30 5
26 4 29 -13 24 -11 -2 -23 0 -26 6 -4 6 -1 11 7 11 8 0 17 9 20 20 4 16 11 19
36 14 21 -4 31 -3 31 5 0 7 -8 11 -17 9 -13 -2 -17 3 -16 20 2 16 -2 22 -17
22 -11 0 -20 5 -20 10 0 6 11 10 24 10 13 0 31 3 39 6 11 4 16 -2 19 -17 4
-29 23 -36 25 -9 1 11 -7 25 -18 30 -22 12 -26 40 -5 40 7 0 19 -7 26 -15 16
-19 30 -19 30 0 0 8 -7 15 -15 15 -18 0 -20 16 -3 26 6 4 17 -1 25 -11 7 -11
13 -16 13 -12 0 4 9 3 20 -3 17 -9 20 -8 20 10 0 13 -7 20 -19 20 -11 0 -22 4
-26 9 -10 17 -67 41 -95 41 -25 0 -27 2 -28 54 -1 63 -14 93 -45 105 -43 17
-62 91 -23 91 8 0 34 -19 58 -42 24 -24 52 -47 63 -53 10 -6 23 -24 28 -42 7
-25 16 -32 41 -36 54 -8 58 -2 54 82 l-3 76 -60 3 c-33 1 -69 6 -80 11 -43 19
-80 33 -85 33 -19 0 -40 22 -40 42 0 23 -45 64 -57 52 -3 -3 -14 5 -23 17 -19
23 -25 19 -32 -28 -2 -15 -12 -20 -38 -22 -50 -2 -75 6 -61 20 15 15 14 27 -4
27 -8 0 -15 -4 -15 -10 0 -15 -26 -12 -40 5 -9 11 -10 18 -1 29 9 10 8 16 -4
26 -12 10 -15 10 -15 -4 0 -10 -9 -16 -24 -16 -18 0 -25 7 -29 29 -11 55 11
96 45 85 10 -3 25 3 35 15 10 12 20 21 24 21 3 0 7 -25 8 -56 1 -31 3 -60 5
-63 4 -5 45 -6 81 -2 13 1 13 40 1 59 -5 8 -4 18 2 24 12 12 177 -84 186 -109
5 -13 19 -14 85 -9 89 8 100 2 76 -43 -8 -17 -15 -32 -15 -36 0 -3 38 -5 85
-5 l85 0 0 50 0 50 -80 0 -80 0 0 90 0 90 -75 0 c-60 0 -75 -3 -75 -15 0 -8
-4 -15 -10 -15 -5 0 -10 -7 -10 -15 0 -9 -9 -15 -22 -15 -13 0 -33 -3 -45 -6
-18 -5 -25 -1 -32 19 -5 13 -16 27 -25 30 -19 7 -10 37 10 37 10 0 14 15 14
54 l0 55 53 3 52 3 1 41 c1 57 8 64 64 64 27 0 51 4 55 9 7 12 41 14 105 7 45
-5 46 -6 30 -16 -17 -10 -14 -15 18 -24 16 -6 22 -3 22 8 0 23 17 20 23 -4 3
-12 14 -20 26 -20 12 0 21 -4 21 -10 0 -5 -4 -10 -10 -10 -5 0 -10 -4 -10 -8
0 -11 71 -42 82 -36 4 3 8 30 8 60 0 47 -3 56 -22 63 -13 5 -41 25 -63 45 -39
35 -41 36 -127 36 -58 0 -91 -4 -100 -13 -7 -7 -32 -22 -55 -32 -24 -10 -43
-22 -43 -27 0 -4 -9 -8 -20 -8 -11 0 -20 -4 -20 -8 0 -12 -50 -33 -61 -27 -16
11 -10 25 16 37 14 6 25 17 25 24 0 7 8 15 18 17 16 4 16 5 0 6 -11 1 -18 9
-18 21 0 17 -7 20 -45 20 -25 0 -45 4 -45 9 0 14 21 19 58 13 19 -3 32 0 32 6
0 16 -18 24 -23 10 -3 -10 -9 -10 -28 1 -16 10 -24 10 -27 2 -4 -13 -32 -15
-32 -2 0 5 -18 12 -39 16 -27 4 -41 13 -44 26 -4 15 -15 19 -54 20 l-48 1 40
8 c22 4 59 7 83 5 23 -1 44 1 47 5 6 10 -48 23 -88 22 -29 -1 -34 22 -6 24 8
1 20 2 27 3 6 0 12 5 12 11 0 5 -13 7 -31 3 -25 -5 -31 -3 -27 8 3 10 23 14
71 14 37 0 67 3 67 7 0 10 -46 21 -57 15 -5 -3 -15 -2 -23 3 -8 5 -19 5 -25 0
-12 -10 -72 2 -67 13 1 4 2 14 2 23 0 14 1 14 16 0 8 -9 21 -16 27 -15 9 0 8
2 0 6 -7 2 -13 11 -13 19 0 16 26 19 35 4 4 -7 13 -6 26 1 11 6 39 9 61 7 23
-1 43 2 45 8 2 7 -24 11 -74 11 -117 1 -133 2 -133 11 0 4 10 12 22 17 15 6
23 20 25 37 1 22 -3 27 -23 30 -32 4 -31 24 1 21 26 -2 25 21 -1 31 -8 3 -14
10 -14 16 0 12 62 4 92 -11 9 -5 19 -5 22 -1 10 17 -11 29 -57 34 -72 8 -81
29 -13 31 20 1 36 4 36 8 0 4 9 9 20 12 11 3 20 10 20 15 0 5 -9 12 -20 15
-23 6 -27 27 -5 27 8 0 15 4 15 9 0 11 -66 51 -84 51 -14 0 -17 52 -4 66 9 8
58 -4 58 -15 0 -4 -10 -12 -22 -18 -21 -9 -21 -10 12 -26 39 -20 48 -21 32 -5
-17 17 -15 28 4 28 13 0 14 3 5 14 -9 11 -9 15 0 18 7 2 12 19 11 36 -1 31 1
33 36 33 77 0 197 14 185 22 -7 4 -10 14 -6 22 5 16 -10 19 -74 15 -25 -1 -33
3 -33 15 0 13 8 16 38 13 25 -2 36 1 34 10 -1 9 45 12 207 12 l208 0 39 31
c22 17 56 40 77 50 l37 19 0 100 0 100 50 0 50 0 0 -118 c0 -81 4 -122 12
-130 10 -10 10 -15 -2 -22 -8 -5 -15 -17 -16 -27 -3 -61 -4 -63 -25 -63 -16 0
-20 5 -16 20 3 11 2 22 -3 25 -4 3 -10 -4 -13 -15 -3 -12 -14 -20 -27 -20 -16
0 -20 4 -16 15 3 9 0 15 -9 15 -9 0 -12 -6 -9 -15 4 -9 0 -15 -10 -15 -9 0
-16 -5 -16 -11 0 -5 -10 -9 -22 -7 -11 2 -23 -2 -25 -9 -2 -7 8 -13 24 -15 15
-2 28 -7 28 -13 0 -14 -55 -19 -68 -6 -16 16 -27 14 -27 -5 0 -9 -7 -14 -17
-12 -10 2 -18 8 -18 15 0 6 -3 15 -7 19 -5 4 -8 0 -8 -9 0 -18 -25 -23 -35 -7
-9 14 -26 12 -24 -2 5 -39 -11 -50 -36 -24 -10 10 -11 16 -2 25 13 13 3 14
-21 2 -9 -5 -25 -12 -35 -15 -10 -3 -15 -10 -12 -16 4 -6 -6 -10 -22 -10 -26
1 -27 2 -10 14 13 10 15 16 6 21 -6 4 -15 1 -20 -6 -7 -12 -12 -12 -30 -1 -11
7 -24 10 -27 6 -4 -4 -1 -9 6 -11 20 -8 13 -26 -8 -20 -22 6 -28 -8 -7 -17 9
-3 8 -8 -3 -18 -8 -7 -14 -24 -12 -36 3 -22 1 -23 -30 -17 -18 4 -37 8 -43 9
-6 0 -13 -72 -17 -189 -6 -189 -3 -215 27 -215 17 0 26 -35 13 -48 -22 -22 0
-41 49 -44 48 -3 48 -3 51 -40 l3 -38 53 0 c57 0 81 -15 70 -44 -5 -13 1 -16
36 -16 38 0 93 -27 120 -60 24 -28 73 -50 115 -50 53 0 60 23 9 28 -51 5 -82
23 -109 63 -15 21 -46 48 -71 60 -24 11 -44 27 -44 34 0 11 -17 23 -42 30 -5
2 -24 3 -43 4 -30 1 -35 5 -35 24 0 29 -26 54 -59 59 -18 2 -27 12 -33 35 -5
18 -17 37 -29 43 -18 10 -19 20 -17 127 3 108 4 116 23 118 44 4 64 16 70 45
5 23 12 29 38 32 25 2 35 10 47 35 l15 33 145 1 c80 0 165 6 190 12 41 11 45
15 48 45 3 26 8 32 27 32 26 0 65 42 65 71 0 11 3 19 8 20 51 5 65 18 65 58 0
35 -18 61 -43 61 -15 0 -18 15 -23 113 -5 89 -10 115 -24 125 -23 17 -164 16
-187 -1z m219 -297 c-3 -5 -13 -10 -21 -10 -8 0 -14 5 -14 10 0 6 9 10 21 10
11 0 17 -4 14 -10z m-175 -110 c0 -5 -9 -10 -20 -10 -11 0 -20 5 -20 10 0 6 9
10 20 10 11 0 20 -4 20 -10z m15 -49 c7 -12 -12 -24 -25 -16 -11 7 -4 25 10
25 5 0 11 -4 15 -9z m-195 -21 c0 -5 -9 -10 -20 -10 -11 0 -20 5 -20 10 0 6 9
10 20 10 11 0 20 -4 20 -10z m80 0 c0 -5 -9 -10 -21 -10 -11 0 -17 5 -14 10 3
6 13 10 21 10 8 0 14 -4 14 -10z m50 0 c0 -5 -7 -10 -15 -10 -8 0 -15 5 -15
10 0 6 7 10 15 10 8 0 15 -4 15 -10z m-253 -6 c-3 -3 -12 -4 -19 -1 -8 3 -5 6
6 6 11 1 17 -2 13 -5z m-77 -64 c0 -5 -9 -10 -20 -10 -11 0 -20 5 -20 10 0 6
9 10 20 10 11 0 20 -4 20 -10z m-570 -20 c0 -5 -7 -10 -15 -10 -8 0 -15 5 -15
10 0 6 7 10 15 10 8 0 15 -4 15 -10z m65 0 c-3 -5 -10 -10 -16 -10 -5 0 -9 5
-9 10 0 6 7 10 16 10 8 0 12 -4 9 -10z m-60 -50 c-3 -5 -13 -10 -21 -10 -8 0
-12 5 -9 10 3 6 13 10 21 10 8 0 12 -4 9 -10z m65 0 c0 -5 -7 -10 -15 -10 -8
0 -15 5 -15 10 0 6 7 10 15 10 8 0 15 -4 15 -10z m92 -5 c-4 -13 -52 -9 -66 5
-8 8 0 10 29 8 22 -2 39 -7 37 -13z m316 3 c-3 -7 -11 -13 -18 -13 -7 0 -15 6
-17 13 -3 7 4 12 17 12 13 0 20 -5 18 -12z m-413 -38 c3 -5 -3 -10 -14 -10
-12 0 -21 5 -21 10 0 6 6 10 14 10 8 0 18 -4 21 -10z m73 4 c12 -4 22 -12 22
-20 0 -21 -17 -26 -33 -9 -9 8 -20 15 -26 15 -6 0 -11 5 -11 10 0 11 15 12 48
4z m-135 -11 c-7 -2 -19 -2 -25 0 -7 3 -2 5 12 5 14 0 19 -2 13 -5z m57 -33
c0 -5 -4 -10 -10 -10 -5 0 -10 5 -10 10 0 6 5 10 10 10 6 0 10 -4 10 -10z
m-50 -30 c0 -5 -9 -10 -21 -10 -11 0 -17 5 -14 10 3 6 13 10 21 10 8 0 14 -4
14 -10z m50 -10 c0 -5 -7 -10 -15 -10 -8 0 -15 5 -15 10 0 6 7 10 15 10 8 0
15 -4 15 -10z m-411 -21 c24 -9 29 -14 21 -24 -8 -9 -8 -15 0 -20 5 -3 10 -1
10 4 0 6 9 11 20 11 11 0 20 -4 20 -8 0 -4 16 -14 35 -21 40 -14 46 -35 13
-46 -20 -6 -20 -8 -5 -12 22 -6 22 -23 -1 -23 -10 0 -23 -5 -29 -11 -14 -14
-36 -1 -29 17 7 19 -4 18 -19 -3 -13 -17 -51 -11 -40 7 3 5 2 10 -4 10 -5 0
-13 -4 -16 -10 -11 -17 -45 -11 -46 8 0 13 -2 12 -9 -5 -9 -22 -40 -23 -40 -2
0 5 -23 7 -52 5 -34 -3 -55 -1 -60 7 -5 8 -13 6 -28 -8 -21 -19 -23 -19 -35
-2 -6 9 -22 17 -34 17 -26 0 -28 20 -2 27 11 3 22 11 25 19 3 8 16 14 30 14
18 0 27 8 35 30 l10 30 99 0 c54 0 113 -5 131 -11z m411 -29 c0 -5 -7 -10 -15
-10 -8 0 -15 5 -15 10 0 6 7 10 15 10 8 0 15 -4 15 -10z m-46 -29 c7 -11 -14
-20 -31 -13 -7 2 -10 8 -7 13 7 12 31 12 38 0z m43 -27 c-3 -3 -12 -4 -19 -1
-8 3 -5 6 6 6 11 1 17 -2 13 -5z m-199 -26 c-3 -7 -11 -13 -18 -13 -7 0 -15 6
-17 13 -3 7 4 12 17 12 13 0 20 -5 18 -12z m247 3 c7 -12 -12 -24 -25 -16 -11
7 -4 25 10 25 5 0 11 -4 15 -9z m-810 -12 c10 -15 -1 -23 -20 -15 -9 3 -13 10
-10 16 8 13 22 13 30 -1z m-45 -9 c0 -5 -7 -10 -15 -10 -8 0 -15 5 -15 10 0 6
7 10 15 10 8 0 15 -4 15 -10z m95 0 c3 -5 -1 -10 -9 -10 -9 0 -16 5 -16 10 0
6 4 10 9 10 6 0 13 -4 16 -10z m713 -1 c-2 -6 -8 -10 -13 -10 -5 0 -11 4 -13
10 -2 6 4 11 13 11 9 0 15 -5 13 -11z m-48 -9 c0 -5 -9 -10 -20 -10 -11 0 -20
5 -20 10 0 6 9 10 20 10 11 0 20 -4 20 -10z m-728 -32 c-12 -12 -35 -1 -27 12
3 5 13 6 21 3 10 -4 12 -9 6 -15z m55 6 c-3 -3 -12 -4 -19 -1 -8 3 -5 6 6 6
11 1 17 -2 13 -5z m55 -6 c-9 -9 -15 -9 -24 0 -9 9 -7 12 12 12 19 0 21 -3 12
-12z m248 2 c0 -5 -9 -10 -20 -10 -11 0 -20 5 -20 10 0 6 9 10 20 10 11 0 20
-4 20 -10z m55 0 c3 -5 -1 -10 -9 -10 -9 0 -16 5 -16 10 0 6 4 10 9 10 6 0 13
-4 16 -10z m80 0 c3 -5 -3 -10 -15 -10 -12 0 -18 5 -15 10 3 6 10 10 15 10 5
0 12 -4 15 -10z m70 -10 c-3 -5 -13 -6 -21 -3 -12 4 -13 8 -3 14 15 9 32 2 24
-11z m142 4 c-3 -3 -12 -4 -19 -1 -8 3 -5 6 6 6 11 1 17 -2 13 -5z m63 -4 c0
-5 -7 -10 -15 -10 -8 0 -15 5 -15 10 0 6 7 10 15 10 8 0 15 -4 15 -10z m-800
-26 c0 -2 -12 -4 -27 -4 -21 0 -24 3 -14 9 13 8 41 5 41 -5z m265 6 c3 -5 -3
-10 -15 -10 -12 0 -18 5 -15 10 3 6 10 10 15 10 5 0 12 -4 15 -10z m75 -5 c0
-8 -6 -15 -14 -15 -17 0 -28 14 -19 24 12 12 33 6 33 -9z m150 6 c0 -12 -20
-25 -27 -18 -7 7 6 27 18 27 5 0 9 -4 9 -9z m70 -1 c0 -5 -7 -10 -15 -10 -8 0
-15 5 -15 10 0 6 7 10 15 10 8 0 15 -4 15 -10z m-630 -10 c0 -5 -7 -10 -16
-10 -8 0 -12 5 -9 10 3 6 10 10 16 10 5 0 9 -4 9 -10z m117 4 c-3 -3 -12 -4
-19 -1 -8 3 -5 6 6 6 11 1 17 -2 13 -5z m53 -4 c0 -5 -7 -10 -15 -10 -8 0 -15
5 -15 10 0 6 7 10 15 10 8 0 15 -4 15 -10z m312 -2 c-9 -9 -15 -9 -24 0 -9 9
-7 12 12 12 19 0 21 -3 12 -12z m212 -7 c3 -5 -1 -11 -9 -15 -15 -6 -29 7 -18
18 9 9 21 8 27 -3z m126 -11 c0 -5 -7 -10 -15 -10 -8 0 -15 5 -15 10 0 6 7 10
15 10 8 0 15 -4 15 -10z m51 -5 c-1 -15 -24 -12 -29 3 -3 9 2 13 12 10 10 -1
17 -7 17 -13z m-811 -4 c0 -14 -18 -23 -30 -16 -6 4 -8 11 -5 16 8 12 35 12
35 0z m50 -1 c0 -5 -4 -10 -10 -10 -5 0 -10 5 -10 10 0 6 5 10 10 10 6 0 10
-4 10 -10z m350 0 c0 -5 -7 -10 -15 -10 -8 0 -15 5 -15 10 0 6 7 10 15 10 8 0
15 -4 15 -10z m60 0 c0 -5 -7 -10 -15 -10 -8 0 -15 5 -15 10 0 6 7 10 15 10 8
0 15 -4 15 -10z m70 0 c0 -5 -7 -10 -15 -10 -8 0 -15 5 -15 10 0 6 7 10 15 10
8 0 15 -4 15 -10z m60 0 c0 -5 -7 -10 -15 -10 -8 0 -15 5 -15 10 0 6 7 10 15
10 8 0 15 -4 15 -10z m-540 -39 c0 -5 -6 -11 -12 -14 -18 -6 -39 3 -32 14 7
12 44 12 44 0z m70 0 c0 -11 -39 -21 -45 -11 -2 4 -2 10 2 14 10 9 43 7 43 -3z
m320 -1 c0 -5 -7 -10 -16 -10 -8 0 -12 5 -9 10 3 6 10 10 16 10 5 0 9 -4 9
-10z m55 0 c-3 -5 -10 -10 -16 -10 -5 0 -9 5 -9 10 0 6 7 10 16 10 8 0 12 -4
9 -10z m55 -5 c0 -9 -6 -12 -15 -9 -8 4 -12 10 -9 15 8 14 24 10 24 -6z m60 5
c0 -5 -7 -10 -16 -10 -8 0 -12 5 -9 10 3 6 10 10 16 10 5 0 9 -4 9 -10z m250
0 c0 -5 -7 -10 -15 -10 -8 0 -15 5 -15 10 0 6 7 10 15 10 8 0 15 -4 15 -10z
m-475 -10 c-3 -5 -12 -10 -20 -10 -8 0 -17 5 -20 10 -4 6 5 10 20 10 15 0 24
-4 20 -10z m-495 -25 c0 -8 -7 -15 -15 -15 -16 0 -20 12 -8 23 11 12 23 8 23
-8z m50 5 c0 -5 -7 -10 -16 -10 -8 0 -12 5 -9 10 3 6 10 10 16 10 5 0 9 -4 9
-10z m60 0 c0 -5 -9 -10 -21 -10 -11 0 -17 5 -14 10 3 6 13 10 21 10 8 0 14
-4 14 -10z m540 -16 c0 -2 -7 -4 -15 -4 -8 0 -15 4 -15 10 0 5 7 7 15 4 8 -4
15 -8 15 -10z m140 6 c0 -5 -7 -10 -15 -10 -8 0 -15 5 -15 10 0 6 7 10 15 10
8 0 15 -4 15 -10z m50 0 c0 -5 -4 -10 -10 -10 -5 0 -10 5 -10 10 0 6 5 10 10
10 6 0 10 -4 10 -10z m60 0 c0 -5 -7 -10 -15 -10 -8 0 -15 5 -15 10 0 6 7 10
15 10 8 0 15 -4 15 -10z m65 1 c3 -5 1 -12 -4 -15 -13 -8 -42 4 -35 15 7 12
31 12 39 0z m-365 -11 c0 -5 -7 -10 -15 -10 -8 0 -15 5 -15 10 0 6 7 10 15 10
8 0 15 -4 15 -10z m120 0 c0 -5 -7 -10 -15 -10 -8 0 -15 5 -15 10 0 6 7 10 15
10 8 0 15 -4 15 -10z m-670 -20 c0 -5 -9 -10 -20 -10 -11 0 -20 5 -20 10 0 6
9 10 20 10 11 0 20 -4 20 -10z m45 0 c3 -5 -1 -10 -10 -10 -9 0 -13 5 -10 10
3 6 8 10 10 10 2 0 7 -4 10 -10z m-99 -38 c-22 -5 -30 3 -21 18 5 8 11 7 22
-2 15 -12 14 -13 -1 -16z m642 10 c2 -7 -6 -12 -17 -12 -21 0 -27 11 -14 24 9
9 26 2 31 -12z m117 8 c3 -5 -1 -10 -9 -10 -9 0 -16 5 -16 10 0 6 4 10 9 10 6
0 13 -4 16 -10z m145 0 c0 -5 -4 -10 -9 -10 -6 0 -13 5 -16 10 -3 6 1 10 9 10
9 0 16 -4 16 -10z m-320 -10 c0 -5 -9 -10 -20 -10 -11 0 -20 5 -20 10 0 6 9
10 20 10 11 0 20 -4 20 -10z m120 0 c0 -5 -7 -10 -15 -10 -8 0 -15 5 -15 10 0
6 7 10 15 10 8 0 15 -4 15 -10z m-197 -7 c-7 -2 -19 -2 -25 0 -7 3 -2 5 12 5
14 0 19 -2 13 -5z m-603 -23 c0 -5 -7 -10 -15 -10 -8 0 -15 5 -15 10 0 6 7 10
15 10 8 0 15 -4 15 -10z m211 -26 c14 -13 35 -24 48 -24 20 0 22 -4 19 -52 -3
-52 -3 -53 -43 -64 -33 -9 -41 -16 -45 -40 -4 -23 -11 -30 -33 -32 -28 -3 -37
14 -17 34 7 7 4 16 -9 28 -18 16 -21 16 -43 2 -22 -14 -25 -14 -41 4 -9 11
-17 34 -17 50 0 17 -4 30 -10 30 -5 0 -10 9 -10 20 0 11 5 20 11 20 5 0 7 5 3
11 -3 6 0 15 7 20 11 7 10 9 -3 9 -10 0 -18 4 -18 8 0 5 39 6 88 4 75 -4 91
-8 113 -28z m634 26 c3 -5 -3 -10 -15 -10 -12 0 -18 5 -15 10 3 6 10 10 15 10
5 0 12 -4 15 -10z m50 0 c3 -5 -1 -10 -10 -10 -9 0 -13 5 -10 10 3 6 8 10 10
10 2 0 7 -4 10 -10z m95 0 c0 -5 -4 -10 -10 -10 -5 0 -10 5 -10 10 0 6 5 10
10 10 6 0 10 -4 10 -10z m120 0 c0 -5 -7 -10 -16 -10 -8 0 -12 5 -9 10 3 6 10
10 16 10 5 0 9 -4 9 -10z m-1115 -29 c3 -5 1 -13 -5 -16 -15 -9 -43 3 -35 15
8 13 32 13 40 1z m945 -1 c0 -5 -4 -10 -10 -10 -5 0 -10 5 -10 10 0 6 5 10 10
10 6 0 10 -4 10 -10z m-101 -31 c-15 -9 -32 -2 -24 11 3 5 13 6 21 3 12 -4 13
-8 3 -14z m61 1 c0 -5 -7 -10 -15 -10 -8 0 -15 5 -15 10 0 6 7 10 15 10 8 0
15 -4 15 -10z m90 0 c0 -5 -4 -10 -10 -10 -5 0 -10 5 -10 10 0 6 5 10 10 10 6
0 10 -4 10 -10z m60 0 c0 -5 -7 -10 -15 -10 -8 0 -15 5 -15 10 0 6 7 10 15 10
8 0 15 -4 15 -10z m50 0 c0 -5 -4 -10 -10 -10 -5 0 -10 5 -10 10 0 6 5 10 10
10 6 0 10 -4 10 -10z m50 0 c0 -5 -4 -10 -10 -10 -5 0 -10 5 -10 10 0 6 5 10
10 10 6 0 10 -4 10 -10z m60 0 c0 -5 -9 -10 -20 -10 -11 0 -20 5 -20 10 0 6 9
10 20 10 11 0 20 -4 20 -10z m-1223 -15 c-4 -8 -2 -17 3 -20 6 -4 10 -10 10
-16 0 -12 -37 -12 -45 1 -3 6 -1 10 6 10 10 0 10 3 1 12 -18 18 -15 28 9 28
14 0 19 -5 16 -15z m731 3 c-3 -7 -11 -13 -18 -13 -7 0 -15 6 -17 13 -3 7 4
12 17 12 13 0 20 -5 18 -12z m82 2 c0 -5 -7 -10 -15 -10 -8 0 -15 5 -15 10 0
6 7 10 15 10 8 0 15 -4 15 -10z m410 -31 c0 -5 -7 -9 -15 -9 -15 0 -20 12 -9
23 8 8 24 -1 24 -14z m40 11 c0 -5 -7 -10 -15 -10 -8 0 -15 5 -15 10 0 6 7 10
15 10 8 0 15 -4 15 -10z m53 -5 c1 -5 -6 -11 -15 -13 -11 -2 -18 3 -18 13 0
17 30 18 33 0z m-353 1 c0 -2 -7 -6 -15 -10 -8 -3 -15 -1 -15 4 0 6 7 10 15
10 8 0 15 -2 15 -4z m40 0 c0 -11 -19 -15 -25 -6 -3 5 1 10 9 10 9 0 16 -2 16
-4z m40 0 c0 -3 -4 -8 -10 -11 -5 -3 -10 -1 -10 4 0 6 5 11 10 11 6 0 10 -2
10 -4z m47 -2 c-3 -3 -12 -4 -19 -1 -8 3 -5 6 6 6 11 1 17 -2 13 -5z m50 0
c-3 -3 -12 -4 -19 -1 -8 3 -5 6 6 6 11 1 17 -2 13 -5z m-1111 -55 c3 -5 -8 -9
-25 -9 -31 0 -50 15 -29 23 17 5 47 -3 54 -14z m1099 11 c3 -5 -1 -10 -9 -10
-9 0 -16 5 -16 10 0 6 4 10 9 10 6 0 13 -4 16 -10z m45 0 c0 -5 -4 -10 -9 -10
-6 0 -13 5 -16 10 -3 6 1 10 9 10 9 0 16 -4 16 -10z m40 0 c0 -5 -4 -10 -10
-10 -5 0 -10 5 -10 10 0 6 5 10 10 10 6 0 10 -4 10 -10z m50 0 c0 -5 -7 -10
-15 -10 -8 0 -15 5 -15 10 0 6 7 10 15 10 8 0 15 -4 15 -10z m45 0 c-3 -5 -10
-10 -16 -10 -5 0 -9 5 -9 10 0 6 7 10 16 10 8 0 12 -4 9 -10z m-258 -6 c-3 -3
-12 -4 -19 -1 -8 3 -5 6 6 6 11 1 17 -2 13 -5z m-314 -19 c-3 -13 -53 -20 -53
-7 0 15 13 23 35 20 11 -2 19 -7 18 -13z m292 -15 c3 -5 1 -10 -4 -10 -6 0
-11 5 -11 10 0 6 2 10 4 10 3 0 8 -4 11 -10z m55 0 c0 -5 -7 -10 -16 -10 -8 0
-12 5 -9 10 3 6 10 10 16 10 5 0 9 -4 9 -10z m40 0 c0 -5 -4 -10 -10 -10 -5 0
-10 5 -10 10 0 6 5 10 10 10 6 0 10 -4 10 -10z m45 0 c3 -5 -1 -10 -10 -10 -9
0 -13 5 -10 10 3 6 8 10 10 10 2 0 7 -4 10 -10z m45 0 c0 -5 -4 -10 -10 -10
-5 0 -10 5 -10 10 0 6 5 10 10 10 6 0 10 -4 10 -10z m50 0 c0 -5 -7 -10 -15
-10 -8 0 -15 5 -15 10 0 6 7 10 15 10 8 0 15 -4 15 -10z m-1162 -47 c4 -14
-25 -17 -53 -7 -13 6 -14 9 -3 15 18 12 50 7 56 -8z m27 8 c3 -5 1 -12 -5 -16
-5 -3 -10 1 -10 9 0 18 6 21 15 7z m845 -1 c0 -5 -5 -10 -11 -10 -5 0 -7 5 -4
10 3 6 8 10 11 10 2 0 4 -4 4 -10z m60 0 c0 -5 -4 -10 -10 -10 -5 0 -10 5 -10
10 0 6 5 10 10 10 6 0 10 -4 10 -10z m90 0 c0 -5 -4 -10 -10 -10 -5 0 -10 5
-10 10 0 6 5 10 10 10 6 0 10 -4 10 -10z m55 0 c3 -5 -1 -10 -9 -10 -9 0 -16
5 -16 10 0 6 4 10 9 10 6 0 13 -4 16 -10z m-305 -40 c0 -5 -7 -10 -15 -10 -8
0 -15 5 -15 10 0 6 7 10 15 10 8 0 15 -4 15 -10z m45 0 c3 -5 -1 -10 -9 -10
-9 0 -16 5 -16 10 0 6 4 10 9 10 6 0 13 -4 16 -10z m295 0 c0 -5 -7 -10 -16
-10 -8 0 -12 5 -9 10 3 6 10 10 16 10 5 0 9 -4 9 -10z m-93 -6 c-3 -3 -12 -4
-19 -1 -8 3 -5 6 6 6 11 1 17 -2 13 -5z m53 -4 c0 -5 -4 -10 -9 -10 -6 0 -13
5 -16 10 -3 6 1 10 9 10 9 0 16 -4 16 -10z m-150 -40 c0 -5 -7 -7 -15 -4 -8 4
-15 8 -15 10 0 2 7 4 15 4 8 0 15 -4 15 -10z m-190 -40 c0 -5 -7 -10 -16 -10
-8 0 -12 5 -9 10 3 6 10 10 16 10 5 0 9 -4 9 -10z m40 0 c0 -5 -4 -10 -10 -10
-5 0 -10 5 -10 10 0 6 5 10 10 10 6 0 10 -4 10 -10z m55 0 c-3 -5 -10 -10 -16
-10 -5 0 -9 5 -9 10 0 6 7 10 16 10 8 0 12 -4 9 -10z m45 0 c0 -5 -4 -10 -10
-10 -5 0 -10 5 -10 10 0 6 5 10 10 10 6 0 10 -4 10 -10z m50 0 c0 -5 -5 -10
-11 -10 -5 0 -7 5 -4 10 3 6 8 10 11 10 2 0 4 -4 4 -10z m60 0 c0 -5 -7 -10
-15 -10 -8 0 -15 5 -15 10 0 6 7 10 15 10 8 0 15 -4 15 -10z m90 0 c0 -5 -7
-10 -15 -10 -8 0 -15 5 -15 10 0 6 7 10 15 10 8 0 15 -4 15 -10z m-260 -35 c0
-8 -7 -15 -15 -15 -8 0 -15 7 -15 15 0 8 7 15 15 15 8 0 15 -7 15 -15z m-773
-11 c15 -4 22 -13 20 -28 -2 -17 4 -22 28 -24 75 -6 95 -13 95 -32 0 -10 -6
-21 -12 -23 -7 -3 3 -6 23 -6 60 -2 99 -12 99 -28 0 -11 8 -13 28 -9 15 3 43
2 62 -3 19 -5 27 -9 18 -10 -24 -1 -23 -22 2 -28 11 -3 20 -12 20 -20 0 -13 3
-13 15 -3 9 7 18 10 22 6 11 -11 -6 -19 -38 -18 -24 1 -29 -2 -20 -11 18 -18
13 -27 -15 -27 -14 0 -23 -4 -20 -8 2 -4 17 -7 33 -6 42 2 43 3 37 19 -4 9 0
15 10 15 9 0 13 -6 10 -14 -4 -11 4 -16 28 -18 28 -2 33 -7 33 -28 0 -24 -2
-25 -80 -27 -97 -2 -94 -1 -75 -13 10 -6 11 -10 3 -10 -23 0 -28 2 -25 11 2
10 4 10 -61 14 -34 2 -50 -2 -54 -11 -3 -8 -12 -14 -20 -14 -12 0 -13 3 -4 14
9 11 9 16 0 22 -7 4 -17 0 -24 -9 -14 -20 -32 -22 -37 -5 -3 7 -32 12 -81 13
-43 1 -80 5 -84 9 -4 3 1 14 10 24 15 15 19 15 27 2 11 -19 23 -7 25 25 1 29
-7 31 -29 10 -19 -19 -30 -19 -23 -1 5 12 -5 14 -50 10 -36 -2 -61 1 -71 8
-13 11 -14 9 -8 -10 6 -16 3 -22 -8 -22 -9 0 -16 7 -16 15 0 8 -3 15 -6 15 -3
0 -12 -7 -20 -15 -9 -8 -33 -15 -54 -15 -34 0 -38 -2 -33 -21 6 -20 3 -21 -22
-15 -25 6 -27 5 -15 -9 12 -14 9 -15 -28 -9 -40 6 -42 5 -42 -19 0 -14 -5 -29
-10 -32 -6 -4 -8 -11 -5 -16 4 -5 -3 -9 -14 -9 -18 0 -21 -6 -21 -40 0 -33 -3
-40 -20 -40 -26 0 -26 -20 0 -27 11 -3 20 -12 20 -19 0 -9 11 -14 30 -14 33 0
53 -27 48 -63 -2 -18 -11 -23 -40 -25 -29 -2 -38 -8 -38 -22 0 -24 -28 -52
-49 -48 -11 2 -16 14 -16 38 0 25 -5 36 -17 38 -13 3 -18 -3 -18 -22 0 -14 5
-28 10 -31 16 -10 1 -25 -24 -25 -28 0 -53 25 -36 35 8 5 8 11 0 20 -7 8 -9
19 -5 25 4 6 3 16 -2 23 -19 25 -9 52 22 58 l30 7 -32 1 c-19 0 -33 6 -33 14
0 16 46 37 82 37 26 0 37 13 20 24 -4 2 -7 21 -6 42 2 25 -3 42 -14 51 -16 11
-16 12 1 13 18 0 23 15 7 25 -5 3 -2 19 9 38 15 27 24 32 59 35 50 4 56 19 10
24 l-33 4 48 22 c29 13 68 22 98 22 38 0 49 4 49 16 0 13 -8 14 -47 8 -44 -6
-47 -6 -34 9 7 10 23 17 36 17 22 0 75 41 75 58 0 14 27 23 46 15 20 -8 66 17
60 33 -3 7 3 15 12 17 26 7 144 7 169 1z m733 -14 c0 -5 -4 -10 -10 -10 -5 0
-10 5 -10 10 0 6 5 10 10 10 6 0 10 -4 10 -10z m-45 -20 c3 -5 -1 -10 -10 -10
-9 0 -13 5 -10 10 3 6 8 10 10 10 2 0 7 -4 10 -10z m190 0 c3 -5 -1 -10 -9
-10 -9 0 -16 5 -16 10 0 6 4 10 9 10 6 0 13 -4 16 -10z m70 1 c7 -12 -12 -24
-25 -16 -11 7 -4 25 10 25 5 0 11 -4 15 -9z m-365 -5 c0 -11 -19 -15 -25 -6
-3 5 1 10 9 10 9 0 16 -2 16 -4z m45 -6 c-3 -5 -10 -10 -16 -10 -5 0 -9 5 -9
10 0 6 7 10 16 10 8 0 12 -4 9 -10z m142 4 c-3 -3 -12 -4 -19 -1 -8 3 -5 6 6
6 11 1 17 -2 13 -5z m60 0 c-3 -3 -12 -4 -19 -1 -8 3 -5 6 6 6 11 1 17 -2 13
-5z m261 -31 c2 -8 -5 -13 -17 -13 -12 0 -21 6 -21 16 0 18 31 15 38 -3z
m-408 -3 c0 -5 -7 -10 -15 -10 -8 0 -15 5 -15 10 0 6 7 10 15 10 8 0 15 -4 15
-10z m155 -10 c3 -5 -1 -10 -10 -10 -9 0 -13 5 -10 10 3 6 8 10 10 10 2 0 7
-4 10 -10z m489 -8 c-1 -7 -2 -25 -2 -42 -2 -35 -29 -41 -56 -11 -15 16 -15
19 -1 24 8 4 15 13 15 21 0 15 18 26 35 22 6 -2 10 -8 9 -14z m-559 -2 c-3 -5
-10 -10 -16 -10 -5 0 -9 5 -9 10 0 6 7 10 16 10 8 0 12 -4 9 -10z m1505 -14
c0 -24 28 -36 86 -36 29 0 39 -16 23 -36 -11 -13 -9 -14 14 -9 17 5 27 3 27
-4 0 -6 9 -11 21 -11 35 0 61 -19 54 -41 -5 -16 -1 -19 29 -19 19 0 38 -4 41
-10 3 -5 1 -10 -4 -10 -21 0 -11 -19 12 -22 21 -3 22 -9 27 -103 5 -93 6 -100
27 -103 12 -2 33 -14 47 -27 14 -13 36 -25 48 -27 13 -2 23 -10 23 -18 0 -8 3
-19 6 -25 3 -5 5 -23 4 -40 -1 -23 -7 -31 -24 -33 -18 -3 -22 1 -19 17 2 11 0
20 -4 21 -5 0 -12 0 -17 0 -4 0 -6 -12 -3 -26 3 -18 0 -30 -12 -36 -9 -5 -16
-20 -16 -33 0 -20 -5 -25 -25 -25 -26 0 -35 23 -14 36 8 4 8 9 0 17 -6 6 -11
21 -11 34 0 34 -27 28 -35 -7 -10 -45 -64 -38 -68 9 -2 25 -28 44 -54 39 -22
-4 -29 20 -7 29 10 4 21 0 29 -10 7 -10 16 -13 25 -7 19 12 1 32 -32 35 -37 4
-38 4 -38 16 0 6 10 9 23 8 43 -5 63 9 64 45 1 26 -4 35 -19 39 -12 3 -17 10
-13 17 4 6 13 9 21 6 10 -4 14 2 14 19 0 16 -6 25 -15 25 -20 0 -19 17 3 29
16 9 16 10 0 16 -10 4 -18 13 -18 21 0 8 -4 14 -10 14 -5 0 -10 -7 -10 -16 0
-8 -5 -12 -10 -9 -6 4 -8 11 -5 16 4 5 -1 9 -9 9 -10 0 -13 -6 -10 -15 9 -23
-15 -18 -36 8 -10 12 -31 23 -47 24 -68 6 -83 9 -85 17 -2 4 14 9 35 11 20 1
37 -2 37 -7 0 -4 9 -3 19 4 11 7 17 16 14 21 -3 5 -9 4 -13 -2 -5 -9 -14 -8
-35 3 -15 8 -34 12 -41 9 -8 -3 -17 2 -20 11 -3 9 -10 16 -16 16 -5 0 -6 -5
-3 -10 12 -20 -28 -24 -42 -4 -12 16 -15 17 -23 4 -5 -8 -12 -11 -16 -7 -4 3
-1 13 5 21 8 10 9 16 1 21 -5 3 -10 -1 -10 -9 0 -19 -36 -22 -43 -3 -2 7 -8 8
-13 3 -5 -5 -4 -11 4 -13 6 -3 12 -9 12 -14 0 -14 -28 -11 -33 4 -3 8 -9 6
-19 -7 -10 -13 -21 -17 -34 -12 -18 7 -17 8 6 26 14 11 19 20 12 20 -7 0 -26
-13 -42 -29 l-30 -28 30 -13 c20 -8 28 -16 21 -23 -5 -5 -15 -6 -23 -1 -7 5
-17 9 -23 11 -5 1 -20 5 -32 8 -16 5 -25 1 -35 -14 -7 -12 -18 -21 -25 -21 -7
0 -13 -7 -13 -15 0 -8 -9 -15 -20 -15 -11 0 -20 7 -20 15 0 8 -7 15 -15 15 -9
0 -12 -6 -9 -15 4 -10 0 -15 -15 -15 -12 0 -21 6 -21 15 0 22 -17 18 -23 -6
-4 -16 -9 -19 -23 -11 -9 5 -26 7 -37 4 -13 -3 -18 -1 -15 8 2 7 14 14 25 15
12 1 33 16 48 33 15 18 34 32 43 33 11 0 12 2 5 6 -22 8 -14 33 10 33 22 0 67
40 67 59 0 4 24 11 54 14 61 6 96 24 96 49 0 16 12 18 120 18 120 0 120 0 120
-24z m-1590 -16 c0 -5 -4 -10 -10 -10 -5 0 -10 5 -10 10 0 6 5 10 10 10 6 0
10 -4 10 -10z m-100 -10 c0 -5 -7 -10 -15 -10 -8 0 -15 5 -15 10 0 6 7 10 15
10 8 0 15 -4 15 -10z m50 0 c0 -5 -7 -10 -15 -10 -8 0 -15 5 -15 10 0 6 7 10
15 10 8 0 15 -4 15 -10z m97 4 c-3 -3 -12 -4 -19 -1 -8 3 -5 6 6 6 11 1 17 -2
13 -5z m43 -4 c0 -5 -4 -10 -9 -10 -6 0 -13 5 -16 10 -3 6 1 10 9 10 9 0 16
-4 16 -10z m270 -4 c0 -11 -19 -15 -25 -6 -3 5 1 10 9 10 9 0 16 -2 16 -4z
m-493 -42 c-3 -3 -12 -4 -19 -1 -8 3 -5 6 6 6 11 1 17 -2 13 -5z m235 -28 c14
-26 0 -36 -29 -21 -15 8 -31 11 -36 8 -6 -3 -7 -1 -3 5 4 7 2 12 -3 12 -6 0
-11 3 -11 8 0 15 73 5 82 -12z m-307 -6 c3 -5 -1 -10 -9 -10 -9 0 -16 5 -16
10 0 6 4 10 9 10 6 0 13 -4 16 -10z m112 4 c-3 -3 -12 -4 -19 -1 -8 3 -5 6 6
6 11 1 17 -2 13 -5z m-107 -44 c0 -5 -7 -10 -15 -10 -8 0 -15 5 -15 10 0 6 7
10 15 10 8 0 15 -4 15 -10z m-1060 -30 c0 -5 -7 -10 -15 -10 -8 0 -15 5 -15
10 0 6 7 10 15 10 8 0 15 -4 15 -10z m360 -16 c0 -4 -18 -10 -40 -11 -30 -2
-40 1 -40 12 0 11 10 14 40 11 22 -2 40 -7 40 -12z m55 -4 c3 -5 -1 -10 -10
-10 -9 0 -13 5 -10 10 3 6 8 10 10 10 2 0 7 -4 10 -10z m2135 -10 c0 -5 -7
-10 -15 -10 -8 0 -15 5 -15 10 0 6 7 10 15 10 8 0 15 -4 15 -10z m140 0 c0 -5
-9 -10 -19 -10 -11 0 -23 5 -26 10 -4 6 5 10 19 10 14 0 26 -4 26 -10z m-2705
-10 c3 -5 -1 -10 -10 -10 -9 0 -13 5 -10 10 3 6 8 10 10 10 2 0 7 -4 10 -10z
m497 -2 c-9 -9 -15 -9 -24 0 -9 9 -7 12 12 12 19 0 21 -3 12 -12z m825 6 c-3
-3 -12 -4 -19 -1 -8 3 -5 6 6 6 11 1 17 -2 13 -5z m40 0 c-3 -3 -12 -4 -19 -1
-8 3 -5 6 6 6 11 1 17 -2 13 -5z m148 -4 c3 -5 28 -12 56 -16 45 -6 49 -9 43
-28 -9 -30 -14 -33 -24 -16 -6 8 -10 11 -10 5 0 -5 -7 -2 -15 9 -8 10 -21 16
-29 13 -13 -5 -46 21 -46 36 0 10 18 8 25 -3z m1315 6 c0 -11 -19 -15 -25 -6
-3 5 1 10 9 10 9 0 16 -2 16 -4z m-2610 -26 c0 -5 -9 -10 -20 -10 -11 0 -20 5
-20 10 0 6 9 10 20 10 11 0 20 -4 20 -10z m60 0 c0 -5 -7 -10 -15 -10 -8 0
-15 5 -15 10 0 6 7 10 15 10 8 0 15 -4 15 -10z m55 0 c-3 -5 -13 -10 -21 -10
-8 0 -14 5 -14 10 0 6 9 10 21 10 11 0 17 -4 14 -10z m205 0 c0 -5 -9 -10 -21
-10 -11 0 -17 5 -14 10 3 6 13 10 21 10 8 0 14 -4 14 -10z m137 -16 c-9 -9
-28 6 -21 18 4 6 10 6 17 -1 6 -6 8 -13 4 -17z m1858 16 c-3 -5 -10 -10 -16
-10 -5 0 -9 5 -9 10 0 6 7 10 16 10 8 0 12 -4 9 -10z m60 0 c-3 -5 -12 -7 -20
-3 -21 7 -19 13 6 13 11 0 18 -4 14 -10z m343 -8 c2 -7 -6 -12 -17 -12 -21 0
-27 11 -14 24 9 9 26 2 31 -12z m-2321 2 c-3 -3 -12 -4 -19 -1 -8 3 -5 6 6 6
11 1 17 -2 13 -5z m208 -4 c-3 -5 -10 -10 -16 -10 -5 0 -9 5 -9 10 0 6 7 10
16 10 8 0 12 -4 9 -10z m2155 0 c0 -5 -4 -10 -10 -10 -5 0 -10 5 -10 10 0 6 5
10 10 10 6 0 10 -4 10 -10z m-2963 -26 c10 -21 9 -26 -3 -31 -19 -7 -27 2 -29
32 -1 32 17 32 32 -1z m2503 -5 c0 -5 -9 -9 -20 -9 -19 0 -26 11 -14 23 8 8
34 -3 34 -14z m-2300 2 c0 -6 -4 -12 -9 -15 -13 -8 -42 4 -35 15 7 12 44 12
44 0z m61 -6 c-1 -15 -24 -12 -29 3 -3 9 2 13 12 10 10 -1 17 -7 17 -13z m297
-3 c2 -7 -6 -12 -17 -12 -21 0 -27 11 -14 24 9 9 26 2 31 -12z m152 9 c0 -14
-18 -23 -30 -16 -6 4 -8 11 -5 16 8 12 35 12 35 0z m247 -7 c3 -8 -31 -11
-114 -9 -131 2 -126 2 -119 13 7 12 229 9 233 -4z m103 0 c0 -10 -11 -13 -42
-11 -59 3 -62 25 -4 25 33 0 46 -4 46 -14z m625 6 c3 -5 -3 -10 -15 -10 -12 0
-18 5 -15 10 3 6 10 10 15 10 5 0 12 -4 15 -10z m613 -2 c-3 -7 -11 -13 -18
-13 -7 0 -15 6 -17 13 -3 7 4 12 17 12 13 0 20 -5 18 -12z m72 3 c0 -11 -26
-22 -34 -14 -12 12 -5 23 14 23 11 0 20 -4 20 -9z m60 1 c0 -14 -11 -21 -26
-15 -21 8 -17 23 6 23 11 0 20 -4 20 -8z m140 -2 c0 -5 -7 -10 -15 -10 -8 0
-15 5 -15 10 0 6 7 10 15 10 8 0 15 -4 15 -10z m-2230 -10 c0 -5 -9 -10 -20
-10 -11 0 -20 5 -20 10 0 6 9 10 20 10 11 0 20 -4 20 -10z m90 0 c0 -5 -7 -10
-15 -10 -8 0 -15 5 -15 10 0 6 7 10 15 10 8 0 15 -4 15 -10z m60 0 c0 -5 -7
-10 -15 -10 -8 0 -15 5 -15 10 0 6 7 10 15 10 8 0 15 -4 15 -10z m112 -2 c-9
-9 -15 -9 -24 0 -9 9 -7 12 12 12 19 0 21 -3 12 -12z m58 2 c0 -5 -7 -10 -15
-10 -8 0 -15 5 -15 10 0 6 7 10 15 10 8 0 15 -4 15 -10z m2260 0 c12 -8 12
-10 -3 -16 -9 -3 -25 -3 -34 0 -15 6 -15 8 -3 16 8 6 17 10 20 10 3 0 12 -4
20 -10z m130 -4 c0 -9 -13 -14 -40 -14 -65 -1 -46 21 23 27 9 0 17 -5 17 -13z
m-1923 -2 c-3 -3 -12 -4 -19 -1 -8 3 -5 6 6 6 11 1 17 -2 13 -5z m90 0 c-3 -3
-12 -4 -19 -1 -8 3 -5 6 6 6 11 1 17 -2 13 -5z m63 2 c0 -11 -19 -15 -25 -6
-3 5 1 10 9 10 9 0 16 -2 16 -4z m57 -2 c-3 -3 -12 -4 -19 -1 -8 3 -5 6 6 6
11 1 17 -2 13 -5z m53 -4 c0 -5 -4 -10 -9 -10 -6 0 -13 5 -16 10 -3 6 1 10 9
10 9 0 16 -4 16 -10z m50 0 c0 -5 -4 -10 -9 -10 -6 0 -13 5 -16 10 -3 6 1 10
9 10 9 0 16 -4 16 -10z m-950 -30 c0 -5 -4 -10 -9 -10 -6 0 -13 5 -16 10 -3 6
1 10 9 10 9 0 16 -4 16 -10z m57 4 c-3 -3 -12 -4 -19 -1 -8 3 -5 6 6 6 11 1
17 -2 13 -5z m53 2 c0 -11 -19 -15 -25 -6 -3 5 1 10 9 10 9 0 16 -2 16 -4z
m70 -12 c0 -2 -7 -4 -15 -4 -8 0 -15 4 -15 10 0 5 7 7 15 4 8 -4 15 -8 15 -10z
m2370 6 c0 -5 -4 -10 -10 -10 -5 0 -10 5 -10 10 0 6 5 10 10 10 6 0 10 -4 10
-10z m-3040 -10 c0 -5 -9 -10 -20 -10 -11 0 -20 5 -20 10 0 6 9 10 20 10 11 0
20 -4 20 -10z m710 6 c0 -11 -19 -15 -25 -6 -3 5 1 10 9 10 9 0 16 -2 16 -4z
m50 -6 c0 -5 -4 -10 -9 -10 -6 0 -13 5 -16 10 -3 6 1 10 9 10 9 0 16 -4 16
-10z m45 0 c3 -5 -1 -10 -9 -10 -9 0 -16 5 -16 10 0 6 4 10 9 10 6 0 13 -4 16
-10z m45 0 c0 -5 -4 -10 -10 -10 -5 0 -10 5 -10 10 0 6 5 10 10 10 6 0 10 -4
10 -10z m55 0 c-3 -5 -13 -10 -21 -10 -8 0 -14 5 -14 10 0 6 9 10 21 10 11 0
17 -4 14 -10z m40 0 c3 -5 1 -10 -4 -10 -6 0 -11 5 -11 10 0 6 2 10 4 10 3 0
8 -4 11 -10z m55 0 c0 -5 -4 -10 -10 -10 -5 0 -10 5 -10 10 0 6 5 10 10 10 6
0 10 -4 10 -10z m130 6 c0 -11 -19 -15 -25 -6 -3 5 1 10 9 10 9 0 16 -2 16 -4z
m305 -6 c3 -5 1 -10 -4 -10 -6 0 -11 5 -11 10 0 6 2 10 4 10 3 0 8 -4 11 -10z
m1605 -35 c0 -8 -6 -15 -14 -15 -17 0 -28 14 -19 24 12 12 33 6 33 -9z m-2460
-10 c0 -8 -7 -15 -15 -15 -16 0 -20 12 -8 23 11 12 23 8 23 -8z m910 5 c0 -5
-7 -10 -16 -10 -8 0 -12 5 -9 10 3 6 10 10 16 10 5 0 9 -4 9 -10z m50 6 c0
-11 -19 -15 -25 -6 -3 5 1 10 9 10 9 0 16 -2 16 -4z m-870 -16 c0 -5 -7 -10
-15 -10 -8 0 -15 5 -15 10 0 6 7 10 15 10 8 0 15 -4 15 -10z m30 0 c0 -5 -2
-10 -4 -10 -3 0 -8 5 -11 10 -3 6 -1 10 4 10 6 0 11 -4 11 -10z m65 0 c-3 -5
-10 -10 -16 -10 -5 0 -9 5 -9 10 0 6 7 10 16 10 8 0 12 -4 9 -10z m80 0 c3 -5
1 -10 -4 -10 -6 0 -11 5 -11 10 0 6 2 10 4 10 3 0 8 -4 11 -10z m50 0 c3 -5
-1 -10 -9 -10 -9 0 -16 5 -16 10 0 6 4 10 9 10 6 0 13 -4 16 -10z m53 -1 c-2
-6 -8 -10 -13 -10 -5 0 -11 4 -13 10 -2 6 4 11 13 11 9 0 15 -5 13 -11z m62 1
c0 -5 -7 -10 -15 -10 -8 0 -15 5 -15 10 0 6 7 10 15 10 8 0 15 -4 15 -10z m60
0 c0 -5 -6 -10 -14 -10 -8 0 -18 5 -21 10 -3 6 3 10 14 10 12 0 21 -4 21 -10z
m53 4 c3 -3 3 -13 0 -21 -5 -12 -7 -12 -14 -1 -15 23 -4 40 14 22z m47 -10 c0
-8 -4 -12 -10 -9 -5 3 -10 10 -10 16 0 5 5 9 10 9 6 0 10 -7 10 -16z m50 6 c0
-5 -4 -10 -10 -10 -5 0 -10 5 -10 10 0 6 5 10 10 10 6 0 10 -4 10 -10z m51 -3
c-1 -12 -15 -9 -19 4 -3 6 1 10 8 8 6 -3 11 -8 11 -12z m50 0 c-1 -12 -15 -9
-19 4 -3 6 1 10 8 8 6 -3 11 -8 11 -12z m69 3 c0 -5 -4 -10 -9 -10 -6 0 -13 5
-16 10 -3 6 1 10 9 10 9 0 16 -4 16 -10z m-1475 -62 c-2 -24 -4 -50 -4 -59 -1
-21 -31 -33 -45 -19 -8 8 -7 13 4 20 13 8 12 11 -4 23 -18 13 -18 14 5 21 l24
6 -24 14 c-23 13 -23 14 -5 24 40 23 52 15 49 -30z m1530 32 c-3 -5 -11 -10
-16 -10 -6 0 -7 5 -4 10 3 6 11 10 16 10 6 0 7 -4 4 -10z m-598 -16 c-3 -3
-12 -4 -19 -1 -8 3 -5 6 6 6 11 1 17 -2 13 -5z m538 -14 c3 -5 1 -10 -4 -10
-6 0 -11 5 -11 10 0 6 2 10 4 10 3 0 8 -4 11 -10z m-476 -19 c9 -6 10 -10 2
-16 -16 -9 -44 2 -36 15 8 12 16 12 34 1z m-99 -11 c0 -5 -6 -10 -14 -10 -8 0
-18 5 -21 10 -3 6 3 10 14 10 12 0 21 -4 21 -10z m235 0 c-3 -5 -13 -10 -21
-10 -8 0 -14 5 -14 10 0 6 9 10 21 10 11 0 17 -4 14 -10z m115 0 c0 -5 -12
-10 -26 -10 -14 0 -23 4 -19 10 3 6 15 10 26 10 10 0 19 -4 19 -10z m330 0 c0
-5 -4 -10 -10 -10 -5 0 -10 5 -10 10 0 6 5 10 10 10 6 0 10 -4 10 -10z m45 0
c3 -5 2 -10 -4 -10 -5 0 -13 5 -16 10 -3 6 -2 10 4 10 5 0 13 -4 16 -10z
m-225 -10 c0 -5 -5 -10 -11 -10 -5 0 -7 5 -4 10 3 6 8 10 11 10 2 0 4 -4 4
-10z m130 0 c0 -5 -4 -10 -10 -10 -5 0 -10 5 -10 10 0 6 5 10 10 10 6 0 10 -4
10 -10z m217 4 c-3 -3 -12 -4 -19 -1 -8 3 -5 6 6 6 11 1 17 -2 13 -5z m816
-19 c-3 -8 -9 -15 -14 -15 -10 0 -12 24 -3 33 11 11 24 -3 17 -18z m-983 -15
c0 -5 -7 -10 -16 -10 -8 0 -12 5 -9 10 3 6 10 10 16 10 5 0 9 -4 9 -10z m50 0
c0 -5 -7 -10 -15 -10 -8 0 -15 5 -15 10 0 6 7 10 15 10 8 0 15 -4 15 -10z m55
0 c3 -5 -3 -10 -15 -10 -12 0 -18 5 -15 10 3 6 10 10 15 10 5 0 12 -4 15 -10z
m55 0 c0 -5 -7 -10 -16 -10 -8 0 -12 5 -9 10 3 6 10 10 16 10 5 0 9 -4 9 -10z
m50 0 c0 -5 -7 -10 -15 -10 -8 0 -15 5 -15 10 0 6 7 10 15 10 8 0 15 -4 15
-10z m50 0 c0 -5 -4 -10 -9 -10 -6 0 -13 5 -16 10 -3 6 1 10 9 10 9 0 16 -4
16 -10z m-383 -6 c-3 -3 -12 -4 -19 -1 -8 3 -5 6 6 6 11 1 17 -2 13 -5z m50 0
c-3 -3 -12 -4 -19 -1 -8 3 -5 6 6 6 11 1 17 -2 13 -5z m68 -34 c3 -5 -1 -10
-9 -10 -9 0 -16 5 -16 10 0 6 4 10 9 10 6 0 13 -4 16 -10z m55 0 c0 -5 -7 -10
-15 -10 -8 0 -15 5 -15 10 0 6 7 10 15 10 8 0 15 -4 15 -10z m53 -10 c5 -18
12 -20 63 -16 49 3 62 1 80 -17 27 -26 22 -37 -17 -37 -22 0 -29 -5 -29 -20 0
-23 19 -23 37 0 9 12 14 12 24 3 10 -10 9 -14 -4 -19 -21 -8 -22 -24 -2 -24 8
0 15 -4 15 -8 0 -5 -22 -9 -50 -10 -27 0 -65 -8 -84 -17 -27 -13 -39 -14 -56
-5 -25 13 -25 13 -34 -16 -9 -29 18 -52 39 -34 13 11 19 8 40 -14 14 -15 25
-31 25 -36 0 -5 11 -12 25 -15 14 -3 36 -7 50 -10 17 -4 25 -12 25 -25 0 -18
7 -20 74 -20 80 0 93 -7 76 -40 -6 -11 -8 -30 -5 -40 5 -17 16 -20 58 -20 65
0 80 -9 75 -46 -3 -28 -2 -29 50 -32 31 -2 53 -8 54 -15 0 -7 1 -19 2 -27 1
-9 17 -18 43 -23 39 -7 43 -12 53 -48 9 -34 14 -39 40 -39 30 0 48 -14 30 -25
-6 -4 -10 -81 -10 -206 l0 -199 -55 0 -55 0 0 -90 0 -89 58 -3 c56 -3 57 -3
60 -35 3 -31 6 -33 43 -33 39 0 39 0 39 -40 0 -34 -3 -40 -21 -40 -12 0 -27 7
-33 15 -8 10 -15 12 -26 5 -13 -9 -13 -12 4 -25 11 -8 16 -21 13 -30 -7 -17
-42 -21 -52 -5 -3 6 -15 10 -26 10 -11 0 -17 -5 -14 -10 11 -18 -25 -23 -44
-6 -12 11 -20 13 -28 5 -17 -17 -33 -1 -33 33 0 22 -4 29 -14 25 -22 -9 -28 5
-8 19 15 12 14 13 -11 14 -22 0 -28 4 -25 17 3 13 12 17 33 16 30 -3 30 -2 5
8 -24 10 -24 11 -6 24 21 16 13 35 -15 35 -12 0 -17 4 -13 11 3 6 14 9 24 6
13 -3 19 2 22 18 7 33 -9 55 -40 56 l-27 1 26 11 c21 8 26 16 25 41 -2 26 -5
31 -25 28 -15 -2 -21 0 -17 7 4 6 16 11 27 11 10 0 19 5 19 10 0 6 -11 8 -25
4 -14 -3 -25 -2 -25 2 1 18 76 57 108 58 37 0 38 17 1 27 -23 7 -21 10 11 13
17 1 15 33 -4 51 -9 9 -18 10 -30 3 -9 -5 -24 -7 -32 -4 -21 8 -6 29 17 23 14
-4 19 0 19 14 0 26 19 24 30 -3 8 -21 9 -20 9 10 1 25 -3 32 -15 30 -10 -2
-19 3 -21 10 -3 7 4 12 16 12 12 0 21 6 21 13 0 8 -9 13 -20 13 -10 -1 -19 4
-19 9 -1 6 9 10 22 10 18 1 21 5 19 25 -2 14 -5 26 -5 27 -1 0 -24 3 -50 6
-59 6 -65 12 -48 40 13 20 13 21 -2 8 -18 -14 -47 -9 -47 9 0 5 7 10 15 10 8
0 15 4 15 10 0 5 -13 7 -30 4 -19 -4 -30 -2 -30 5 0 6 -9 11 -20 11 -20 0 -27
14 -11 24 5 3 14 -1 21 -9 13 -16 30 -20 30 -7 0 19 -39 31 -71 22 -38 -11
-59 -2 -35 15 15 12 15 13 -3 18 -14 3 -18 1 -14 -9 3 -9 -2 -14 -14 -14 -14
0 -19 6 -18 23 2 27 -33 51 -52 35 -8 -7 -22 -5 -43 5 -16 9 -30 11 -30 6 0
-5 -7 -9 -15 -9 -9 0 -15 9 -15 25 0 16 6 25 15 25 8 0 15 -4 15 -9 0 -5 9 -7
20 -4 34 9 22 20 -22 19 -30 -1 -49 5 -62 18 -15 15 -36 20 -88 22 -38 1 -72
5 -75 8 -4 3 0 6 8 6 8 0 20 9 26 19 10 15 9 20 -2 25 -8 3 -14 0 -12 -7 1 -7
-13 -13 -35 -15 -29 -2 -38 0 -38 13 0 9 -12 18 -30 22 -17 3 -30 12 -30 20 0
11 7 13 24 9 28 -7 57 18 32 27 -9 4 -18 2 -21 -2 -3 -5 -23 -8 -45 -7 -22 1
-40 -1 -40 -6 0 -4 -8 -8 -17 -8 -14 1 -12 5 9 21 24 18 26 23 15 42 -7 12
-16 25 -22 29 -5 4 -6 10 -2 15 5 4 11 2 15 -4 14 -22 92 -16 92 8 0 12 -17
12 -25 -1 -5 -8 -11 -8 -20 0 -7 6 -17 10 -21 9 -22 -4 -35 2 -28 12 3 6 0 15
-7 20 -7 4 -10 11 -6 15 3 4 14 1 23 -7 14 -11 18 -10 34 10 11 16 20 20 24
12 9 -14 36 -15 36 -1 0 6 -13 13 -30 17 -30 5 -42 22 -17 24 10 0 10 2 0 6
-7 2 -13 9 -13 14 0 11 27 12 32 1 2 -5 16 -12 32 -16 26 -6 28 -5 17 8 -12
14 -10 16 7 16 11 0 22 -5 24 -12 2 -6 10 -8 16 -4 18 11 14 26 -6 26 -18 0
-42 18 -42 31 0 12 33 20 40 9 9 -15 60 12 60 33 0 24 26 22 33 -3z m57 10 c0
-5 -9 -10 -20 -10 -11 0 -20 5 -20 10 0 6 9 10 20 10 11 0 20 -4 20 -10z m50
1 c0 -14 -18 -23 -30 -16 -6 4 -8 11 -5 16 8 12 35 12 35 0z m50 -1 c0 -5 -4
-10 -10 -10 -5 0 -10 5 -10 10 0 6 5 10 10 10 6 0 10 -4 10 -10z m1308 -7 c2
-8 -6 -13 -22 -13 -25 0 -33 10 -19 24 10 10 36 3 41 -11z m-3138 -9 c0 -9 -7
-14 -17 -12 -25 5 -28 28 -4 28 12 0 21 -6 21 -16z m1395 6 c-3 -5 -10 -10
-16 -10 -5 0 -9 5 -9 10 0 6 7 10 16 10 8 0 12 -4 9 -10z m52 4 c-3 -3 -12 -4
-19 -1 -8 3 -5 6 6 6 11 1 17 -2 13 -5z m50 0 c-3 -3 -12 -4 -19 -1 -8 3 -5 6
6 6 11 1 17 -2 13 -5z m887 -3 c8 -12 -20 -22 -39 -15 -19 8 -9 24 15 24 10 0
21 -4 24 -9z m256 -11 c0 -5 -12 -10 -26 -10 -14 0 -23 4 -19 10 3 6 15 10 26
10 10 0 19 -4 19 -10z m-1497 -7 c-7 -2 -19 -2 -25 0 -7 3 -2 5 12 5 14 0 19
-2 13 -5z m62 -3 c-3 -5 -10 -10 -16 -10 -5 0 -9 5 -9 10 0 6 7 10 16 10 8 0
12 -4 9 -10z m55 0 c0 -5 -7 -10 -15 -10 -8 0 -15 5 -15 10 0 6 7 10 15 10 8
0 15 -4 15 -10z m40 0 c0 -5 -4 -10 -10 -10 -5 0 -10 5 -10 10 0 6 5 10 10 10
6 0 10 -4 10 -10z m50 0 c0 -5 -7 -7 -15 -4 -8 4 -15 8 -15 10 0 2 7 4 15 4 8
0 15 -4 15 -10z m97 -6 c-3 -3 -12 -4 -19 -1 -8 3 -5 6 6 6 11 1 17 -2 13 -5z
m80 0 c-3 -3 -12 -4 -19 -1 -8 3 -5 6 6 6 11 1 17 -2 13 -5z m-37 -14 c0 -5
-7 -10 -15 -10 -8 0 -15 5 -15 10 0 6 7 10 15 10 8 0 15 -4 15 -10z m-90 -10
c0 -5 -4 -10 -9 -10 -6 0 -13 5 -16 10 -3 6 1 10 9 10 9 0 16 -4 16 -10z
m-163 -6 c-3 -3 -12 -4 -19 -1 -8 3 -5 6 6 6 11 1 17 -2 13 -5z m63 -4 c0 -5
-7 -10 -15 -10 -8 0 -15 5 -15 10 0 6 7 10 15 10 8 0 15 -4 15 -10z m50 0 c0
-5 -7 -10 -16 -10 -8 0 -12 5 -9 10 3 6 10 10 16 10 5 0 9 -4 9 -10z m94 -11
c-3 -5 -10 -7 -15 -3 -5 3 -7 10 -3 15 3 5 10 7 15 3 5 -3 7 -10 3 -15z m461
11 c-3 -5 -10 -10 -16 -10 -5 0 -9 5 -9 10 0 6 7 10 16 10 8 0 12 -4 9 -10z
m50 0 c-3 -5 -10 -10 -16 -10 -5 0 -9 5 -9 10 0 6 7 10 16 10 8 0 12 -4 9 -10z
m1281 -1 c3 -6 2 -15 -3 -20 -13 -13 -43 -1 -43 17 0 16 36 19 46 3z m-1706
-3 c0 -11 -19 -15 -25 -6 -3 5 1 10 9 10 9 0 16 -2 16 -4z m-143 -32 c-3 -3
-12 -4 -19 -1 -8 3 -5 6 6 6 11 1 17 -2 13 -5z m63 -4 c0 -5 -7 -10 -15 -10
-8 0 -15 -4 -15 -10 0 -5 7 -10 15 -10 16 0 20 -15 7 -24 -5 -3 -16 4 -25 15
-14 16 -15 22 -5 34 15 17 38 20 38 5z m1361 -5 c0 -5 -9 -11 -21 -13 -20 -3
-27 8 -13 22 10 9 34 3 34 -9z m-1571 -5 c0 -5 -7 -10 -15 -10 -8 0 -15 5 -15
10 0 6 7 10 15 10 8 0 15 -4 15 -10z m57 4 c-3 -3 -12 -4 -19 -1 -8 3 -5 6 6
6 11 1 17 -2 13 -5z m43 -19 c0 -8 -4 -15 -10 -15 -5 0 -10 7 -10 15 0 8 5 15
10 15 6 0 10 -7 10 -15z m40 -5 c0 -5 -4 -10 -10 -10 -5 0 -10 5 -10 10 0 6 5
10 10 10 6 0 10 -4 10 -10z m530 -10 c0 -5 -6 -10 -14 -10 -8 0 -18 5 -21 10
-3 6 3 10 14 10 12 0 21 -4 21 -10z m-660 -20 c0 -5 -7 -10 -15 -10 -8 0 -15
5 -15 10 0 6 7 10 15 10 8 0 15 -4 15 -10z m50 0 c0 -5 -5 -10 -11 -10 -5 0
-7 5 -4 10 3 6 8 10 11 10 2 0 4 -4 4 -10z m85 0 c-3 -5 -10 -10 -16 -10 -5 0
-9 5 -9 10 0 6 7 10 16 10 8 0 12 -4 9 -10z m-250 -10 c-3 -5 -10 -10 -16 -10
-5 0 -9 5 -9 10 0 6 7 10 16 10 8 0 12 -4 9 -10z m52 4 c-3 -3 -12 -4 -19 -1
-8 3 -5 6 6 6 11 1 17 -2 13 -5z m691 -12 c2 -7 -6 -12 -17 -12 -21 0 -27 11
-14 24 9 9 26 2 31 -12z m-538 -2 c0 -5 -4 -10 -10 -10 -5 0 -10 5 -10 10 0 6
5 10 10 10 6 0 10 -4 10 -10z m420 -6 c0 -9 -7 -14 -17 -12 -25 5 -28 28 -4
28 12 0 21 -6 21 -16z m55 6 c-3 -5 -13 -10 -21 -10 -8 0 -14 5 -14 10 0 6 9
10 21 10 11 0 17 -4 14 -10z m988 -5 c1 -5 -6 -11 -15 -13 -11 -2 -18 3 -18
13 0 17 30 18 33 0z m-1673 -25 c0 -5 -7 -10 -15 -10 -8 0 -15 5 -15 10 0 6 7
10 15 10 8 0 15 -4 15 -10z m60 0 c0 -5 -7 -10 -15 -10 -8 0 -15 5 -15 10 0 6
7 10 15 10 8 0 15 -4 15 -10z m47 4 c-3 -3 -12 -4 -19 -1 -8 3 -5 6 6 6 11 1
17 -2 13 -5z m73 -4 c0 -5 -7 -10 -15 -10 -8 0 -15 5 -15 10 0 6 7 10 15 10 8
0 15 -4 15 -10z m70 0 c0 -5 -4 -10 -9 -10 -6 0 -13 5 -16 10 -3 6 1 10 9 10
9 0 16 -4 16 -10z m472 -12 c-12 -12 -35 -1 -27 12 3 5 13 6 21 3 10 -4 12 -9
6 -15z m-717 -28 c3 -5 -3 -10 -15 -10 -12 0 -18 5 -15 10 3 6 10 10 15 10 5
0 12 -4 15 -10z m90 0 c3 -5 -1 -10 -10 -10 -9 0 -13 5 -10 10 3 6 8 10 10 10
2 0 7 -4 10 -10z m585 0 c0 -5 -7 -10 -15 -10 -8 0 -15 5 -15 10 0 6 7 10 15
10 8 0 15 -4 15 -10z m-500 -10 c0 -5 -4 -10 -9 -10 -6 0 -13 5 -16 10 -3 6 1
10 9 10 9 0 16 -4 16 -10z m70 0 c0 -5 -4 -10 -9 -10 -6 0 -13 5 -16 10 -3 6
1 10 9 10 9 0 16 -4 16 -10z m-203 -6 c-3 -3 -12 -4 -19 -1 -8 3 -5 6 6 6 11
1 17 -2 13 -5z m243 -14 c0 -5 -7 -10 -15 -10 -8 0 -15 5 -15 10 0 6 7 10 15
10 8 0 15 -4 15 -10z m-210 -10 c0 -5 -4 -10 -10 -10 -5 0 -10 5 -10 10 0 6 5
10 10 10 6 0 10 -4 10 -10z m60 0 c0 -5 -2 -10 -4 -10 -2 0 -12 -3 -22 -7 -16
-6 -17 -5 -4 10 17 19 30 22 30 7z m-137 -7 c-7 -2 -19 -2 -25 0 -7 3 -2 5 12
5 14 0 19 -2 13 -5z m237 -3 c0 -5 -4 -10 -10 -10 -5 0 -10 5 -10 10 0 6 5 10
10 10 6 0 10 -4 10 -10z m-195 -10 c3 -5 -1 -10 -10 -10 -9 0 -13 5 -10 10 3
6 8 10 10 10 2 0 7 -4 10 -10z m40 -20 c3 -5 -1 -10 -9 -10 -9 0 -16 5 -16 10
0 6 4 10 9 10 6 0 13 -4 16 -10z m-80 -10 c3 -5 -1 -10 -9 -10 -9 0 -16 5 -16
10 0 6 4 10 9 10 6 0 13 -4 16 -10z m135 0 c0 -5 -4 -10 -10 -10 -5 0 -10 5
-10 10 0 6 5 10 10 10 6 0 10 -4 10 -10z m100 -10 c0 -5 -4 -10 -10 -10 -5 0
-10 5 -10 10 0 6 5 10 10 10 6 0 10 -4 10 -10z m80 0 c0 -5 -2 -10 -4 -10 -3
0 -8 5 -11 10 -3 6 -1 10 4 10 6 0 11 -4 11 -10z m-270 -4 c0 -3 -4 -8 -10
-11 -5 -3 -10 -1 -10 4 0 6 5 11 10 11 6 0 10 -2 10 -4z m235 -6 c-3 -5 -10
-10 -16 -10 -5 0 -9 5 -9 10 0 6 7 10 16 10 8 0 12 -4 9 -10z m1375 0 c0 -5
-4 -10 -10 -10 -5 0 -10 5 -10 10 0 6 5 10 10 10 6 0 10 -4 10 -10z m50 0 c0
-5 -7 -10 -15 -10 -8 0 -15 5 -15 10 0 6 7 10 15 10 8 0 15 -4 15 -10z m-1703
-26 c-3 -3 -12 -4 -19 -1 -8 3 -5 6 6 6 11 1 17 -2 13 -5z m83 -4 c0 -5 -4
-10 -9 -10 -6 0 -13 5 -16 10 -3 6 1 10 9 10 9 0 16 -4 16 -10z m50 0 c0 -5
-4 -10 -10 -10 -5 0 -10 5 -10 10 0 6 5 10 10 10 6 0 10 -4 10 -10z m100 0 c0
-5 -4 -10 -10 -10 -5 0 -10 5 -10 10 0 6 5 10 10 10 6 0 10 -4 10 -10z m90 0
c0 -5 -4 -10 -9 -10 -6 0 -13 5 -16 10 -3 6 1 10 9 10 9 0 16 -4 16 -10z m50
0 c0 -5 -4 -10 -10 -10 -5 0 -10 5 -10 10 0 6 5 10 10 10 6 0 10 -4 10 -10z
m-380 -30 c0 -5 -7 -10 -15 -10 -8 0 -15 5 -15 10 0 6 7 10 15 10 8 0 15 -4
15 -10z m70 0 c0 -5 -7 -10 -15 -10 -8 0 -15 5 -15 10 0 6 7 10 15 10 8 0 15
-4 15 -10z m125 0 c3 -5 -1 -10 -9 -10 -9 0 -16 5 -16 10 0 6 4 10 9 10 6 0
13 -4 16 -10z m85 0 c0 -5 -7 -10 -16 -10 -8 0 -12 5 -9 10 3 6 10 10 16 10 5
0 9 -4 9 -10z m45 0 c3 -5 1 -10 -4 -10 -6 0 -11 5 -11 10 0 6 2 10 4 10 3 0
8 -4 11 -10z m-188 -6 c-3 -3 -12 -4 -19 -1 -8 3 -5 6 6 6 11 1 17 -2 13 -5z
m286 -1 c-7 -2 -19 -2 -25 0 -7 3 -2 5 12 5 14 0 19 -2 13 -5z m1337 -8 c0 -8
-7 -15 -15 -15 -8 0 -15 7 -15 15 0 8 7 15 15 15 8 0 15 -7 15 -15z m51 0 c-1
-15 -24 -12 -29 3 -3 9 2 13 12 10 10 -1 17 -7 17 -13z m-1571 -5 c0 -5 -7
-10 -16 -10 -8 0 -12 5 -9 10 3 6 10 10 16 10 5 0 9 -4 9 -10z m-103 -16 c-3
-3 -12 -4 -19 -1 -8 3 -5 6 6 6 11 1 17 -2 13 -5z m143 -4 c0 -5 -4 -10 -9
-10 -6 0 -13 5 -16 10 -3 6 1 10 9 10 9 0 16 -4 16 -10z m60 0 c0 -5 -7 -10
-15 -10 -8 0 -15 5 -15 10 0 6 7 10 15 10 8 0 15 -4 15 -10z m45 0 c-3 -5 -10
-10 -16 -10 -5 0 -9 5 -9 10 0 6 7 10 16 10 8 0 12 -4 9 -10z m55 0 c0 -5 -7
-10 -15 -10 -8 0 -15 5 -15 10 0 6 7 10 15 10 8 0 15 -4 15 -10z m50 0 c0 -5
-7 -10 -16 -10 -8 0 -12 5 -9 10 3 6 10 10 16 10 5 0 9 -4 9 -10z m47 4 c-3
-3 -12 -4 -19 -1 -8 3 -5 6 6 6 11 1 17 -2 13 -5z m63 -4 c0 -5 -9 -10 -20
-10 -11 0 -20 5 -20 10 0 6 9 10 20 10 11 0 20 -4 20 -10z m-575 -35 c0 -5
-10 -11 -22 -13 -16 -2 -23 2 -23 13 0 11 7 15 23 13 12 -2 22 -7 22 -13z
m135 5 c0 -5 -7 -10 -16 -10 -8 0 -12 5 -9 10 3 6 10 10 16 10 5 0 9 -4 9 -10z
m420 0 c0 -5 -7 -10 -15 -10 -8 0 -15 5 -15 10 0 6 7 10 15 10 8 0 15 -4 15
-10z m50 0 c0 -5 -7 -10 -15 -10 -8 0 -15 5 -15 10 0 6 7 10 15 10 8 0 15 -4
15 -10z m-515 -10 c-3 -5 -15 -10 -26 -10 -10 0 -19 5 -19 10 0 6 12 10 26 10
14 0 23 -4 19 -10z m122 4 c-3 -3 -12 -4 -19 -1 -8 3 -5 6 6 6 11 1 17 -2 13
-5z m50 0 c-3 -3 -12 -4 -19 -1 -8 3 -5 6 6 6 11 1 17 -2 13 -5z m53 2 c0 -11
-19 -15 -25 -6 -3 5 1 10 9 10 9 0 16 -2 16 -4z m50 0 c0 -11 -19 -15 -25 -6
-3 5 1 10 9 10 9 0 16 -2 16 -4z m50 0 c0 -11 -19 -15 -25 -6 -3 5 1 10 9 10
9 0 16 -2 16 -4z m50 0 c0 -11 -19 -15 -25 -6 -3 5 1 10 9 10 9 0 16 -2 16 -4z
m-330 -36 c0 -5 -4 -10 -10 -10 -5 0 -10 5 -10 10 0 6 5 10 10 10 6 0 10 -4
10 -10z m75 0 c3 -5 -1 -10 -10 -10 -9 0 -13 5 -10 10 3 6 8 10 10 10 2 0 7
-4 10 -10z m250 0 c3 -5 1 -10 -4 -10 -6 0 -11 5 -11 10 0 6 2 10 4 10 3 0 8
-4 11 -10z m-198 -6 c-3 -3 -12 -4 -19 -1 -8 3 -5 6 6 6 11 1 17 -2 13 -5z
m50 0 c-3 -3 -12 -4 -19 -1 -8 3 -5 6 6 6 11 1 17 -2 13 -5z m50 0 c-3 -3 -12
-4 -19 -1 -8 3 -5 6 6 6 11 1 17 -2 13 -5z m53 -4 c0 -5 -7 -10 -15 -10 -8 0
-15 5 -15 10 0 6 7 10 15 10 8 0 15 -4 15 -10z m100 0 c0 -5 -7 -10 -15 -10
-8 0 -15 5 -15 10 0 6 7 10 15 10 8 0 15 -4 15 -10z m40 0 c0 -5 -4 -10 -9
-10 -6 0 -13 5 -16 10 -3 6 1 10 9 10 9 0 16 -4 16 -10z m47 4 c-3 -3 -12 -4
-19 -1 -8 3 -5 6 6 6 11 1 17 -2 13 -5z m93 -23 c0 -5 10 -12 23 -16 12 -3 17
-9 11 -11 -7 -3 -27 4 -45 15 -30 18 -31 21 -11 21 12 0 22 -4 22 -9z m70 -1
c0 -5 -7 -10 -15 -10 -8 0 -15 5 -15 10 0 6 7 10 15 10 8 0 15 -4 15 -10z
m-635 -10 c3 -5 -1 -10 -10 -10 -9 0 -13 5 -10 10 3 6 8 10 10 10 2 0 7 -4 10
-10z m78 -7 c-7 -2 -19 -2 -25 0 -7 3 -2 5 12 5 14 0 19 -2 13 -5z m54 1 c-3
-3 -12 -4 -19 -1 -8 3 -5 6 6 6 11 1 17 -2 13 -5z m53 2 c0 -11 -19 -15 -25
-6 -3 5 1 10 9 10 9 0 16 -2 16 -4z m47 -2 c-3 -3 -12 -4 -19 -1 -8 3 -5 6 6
6 11 1 17 -2 13 -5z m-742 -24 c-3 -5 -12 -7 -20 -3 -21 7 -19 13 6 13 11 0
18 -4 14 -10z m55 6 c0 -11 -19 -15 -25 -6 -3 5 1 10 9 10 9 0 16 -2 16 -4z
m77 -2 c-3 -3 -12 -4 -19 -1 -8 3 -5 6 6 6 11 1 17 -2 13 -5z m90 0 c-3 -3
-12 -4 -19 -1 -8 3 -5 6 6 6 11 1 17 -2 13 -5z m143 2 c0 -11 -19 -15 -25 -6
-3 5 1 10 9 10 9 0 16 -2 16 -4z m78 -16 c7 -12 8 -20 2 -20 -5 0 -10 5 -10
10 0 6 -7 10 -15 10 -8 0 -15 5 -15 10 0 17 25 11 38 -10z m702 10 c0 -5 -4
-10 -10 -10 -5 0 -10 5 -10 10 0 6 5 10 10 10 6 0 10 -4 10 -10z m-646 -9 c3
-5 -1 -11 -9 -15 -15 -6 -29 7 -18 18 9 9 21 8 27 -3z m91 -1 c3 -5 -3 -10
-15 -10 -12 0 -18 5 -15 10 3 6 10 10 15 10 5 0 12 -4 15 -10z m100 0 c3 -5
-1 -10 -10 -10 -9 0 -13 5 -10 10 3 6 8 10 10 10 2 0 7 -4 10 -10z m159 1 c3
-5 -1 -11 -9 -15 -15 -6 -29 7 -18 18 9 9 21 8 27 -3z m86 -1 c0 -5 -7 -10
-16 -10 -8 0 -12 5 -9 10 3 6 10 10 16 10 5 0 9 -4 9 -10z m50 0 c0 -5 -4 -10
-10 -10 -5 0 -10 5 -10 10 0 6 5 10 10 10 6 0 10 -4 10 -10z m-655 -9 c7 -12
-12 -24 -25 -16 -11 7 -4 25 10 25 5 0 11 -4 15 -9z m305 -1 c0 -5 -4 -10 -9
-10 -6 0 -13 5 -16 10 -3 6 1 10 9 10 9 0 16 -4 16 -10z m110 6 c0 -11 -19
-15 -25 -6 -3 5 1 10 9 10 9 0 16 -2 16 -4z m-770 -16 c0 -5 -7 -10 -16 -10
-8 0 -12 5 -9 10 3 6 10 10 16 10 5 0 9 -4 9 -10z m110 0 c0 -5 -7 -10 -15
-10 -8 0 -15 5 -15 10 0 6 7 10 15 10 8 0 15 -4 15 -10z m40 0 c0 -5 -4 -10
-10 -10 -5 0 -10 5 -10 10 0 6 5 10 10 10 6 0 10 -4 10 -10z m70 0 c0 -5 -7
-10 -15 -10 -8 0 -15 5 -15 10 0 6 7 10 15 10 8 0 15 -4 15 -10z m65 0 c-3 -5
-10 -10 -16 -10 -5 0 -9 5 -9 10 0 6 7 10 16 10 8 0 12 -4 9 -10z m120 -10
c-20 -22 -35 -26 -35 -10 0 6 7 10 16 10 8 0 12 5 9 10 -3 6 2 10 11 10 16 0
16 -1 -1 -20z m640 10 c3 -5 1 -10 -4 -10 -6 0 -11 5 -11 10 0 6 2 10 4 10 3
0 8 -4 11 -10z m85 0 c0 -5 -2 -10 -4 -10 -3 0 -8 5 -11 10 -3 6 -1 10 4 10 6
0 11 -4 11 -10z m77 4 c-3 -3 -12 -4 -19 -1 -8 3 -5 6 6 6 11 1 17 -2 13 -5z
m-642 -14 c3 -5 -3 -10 -15 -10 -12 0 -18 5 -15 10 3 6 10 10 15 10 5 0 12 -4
15 -10z m685 0 c0 -5 -4 -10 -10 -10 -5 0 -10 5 -10 10 0 6 5 10 10 10 6 0 10
-4 10 -10z m-630 -4 c0 -3 -4 -8 -10 -11 -5 -3 -10 -1 -10 4 0 6 5 11 10 11 6
0 10 -2 10 -4z m480 -6 c0 -5 -4 -10 -10 -10 -5 0 -10 5 -10 10 0 6 5 10 10
10 6 0 10 -4 10 -10z m-1023 -16 c-3 -3 -12 -4 -19 -1 -8 3 -5 6 6 6 11 1 17
-2 13 -5z m288 -4 c3 -5 -1 -10 -9 -10 -9 0 -16 5 -16 10 0 6 4 10 9 10 6 0
13 -4 16 -10z m770 0 c3 -5 -1 -10 -10 -10 -9 0 -13 5 -10 10 3 6 8 10 10 10
2 0 7 -4 10 -10z m190 0 c3 -5 -1 -10 -9 -10 -9 0 -16 5 -16 10 0 6 4 10 9 10
6 0 13 -4 16 -10z m-865 -10 c0 -5 -7 -10 -16 -10 -8 0 -12 5 -9 10 3 6 10 10
16 10 5 0 9 -4 9 -10z m620 0 c0 -5 -2 -10 -4 -10 -3 0 -8 5 -11 10 -3 6 -1
10 4 10 6 0 11 -4 11 -10z m197 4 c-3 -3 -12 -4 -19 -1 -8 3 -5 6 6 6 11 1 17
-2 13 -5z m-1247 -14 c0 -5 -11 -10 -25 -10 -14 0 -25 5 -25 10 0 6 11 10 25
10 14 0 25 -4 25 -10z m490 0 c0 -5 -6 -10 -14 -10 -8 0 -18 5 -21 10 -3 6 3
10 14 10 12 0 21 -4 21 -10z m57 4 c-3 -3 -12 -4 -19 -1 -8 3 -5 6 6 6 11 1
17 -2 13 -5z m63 -4 c0 -5 -7 -10 -15 -10 -8 0 -15 5 -15 10 0 6 7 10 15 10 8
0 15 -4 15 -10z m601 0 c5 0 9 -7 9 -15 0 -8 -7 -15 -15 -15 -8 0 -15 6 -15
14 0 8 -3 16 -7 19 -5 2 -2 2 5 0 8 -1 18 -3 23 -3z m-831 -10 c0 -5 -2 -10
-4 -10 -3 0 -8 5 -11 10 -3 6 -1 10 4 10 6 0 11 -4 11 -10z m-335 -10 c-3 -5
-10 -10 -16 -10 -5 0 -9 5 -9 10 0 6 7 10 16 10 8 0 12 -4 9 -10z m1095 0 c0
-5 -4 -10 -10 -10 -5 0 -10 5 -10 10 0 6 5 10 10 10 6 0 10 -4 10 -10z m200 0
c0 -5 -7 -10 -15 -10 -8 0 -15 5 -15 10 0 6 7 10 15 10 8 0 15 -4 15 -10z
m-63 -6 c-3 -3 -12 -4 -19 -1 -8 3 -5 6 6 6 11 1 17 -2 13 -5z m-917 -14 c0
-5 -9 -10 -20 -10 -11 0 -20 5 -20 10 0 6 9 10 20 10 11 0 20 -4 20 -10z m70
0 c0 -5 -4 -10 -10 -10 -5 0 -10 5 -10 10 0 6 5 10 10 10 6 0 10 -4 10 -10z
m65 0 c3 -5 -3 -10 -14 -10 -12 0 -21 5 -21 10 0 6 6 10 14 10 8 0 18 -4 21
-10z m55 6 c0 -3 -4 -8 -10 -11 -5 -3 -10 -1 -10 4 0 6 5 11 10 11 6 0 10 -2
10 -4z m60 -6 c0 -5 -7 -10 -15 -10 -8 0 -15 5 -15 10 0 6 7 10 15 10 8 0 15
-4 15 -10z m474 1 c7 -10 -23 -20 -42 -14 -6 3 -10 9 -6 14 7 12 41 12 48 0z
m-1094 -11 c0 -5 -9 -10 -21 -10 -11 0 -17 5 -14 10 3 6 13 10 21 10 8 0 14
-4 14 -10z m1185 0 c-3 -5 -10 -10 -16 -10 -5 0 -9 5 -9 10 0 6 7 10 16 10 8
0 12 -4 9 -10z m45 -10 c0 -5 -4 -10 -10 -10 -5 0 -10 5 -10 10 0 6 5 10 10
10 6 0 10 -4 10 -10z m100 0 c0 -5 -4 -10 -10 -10 -5 0 -10 5 -10 10 0 6 5 10
10 10 6 0 10 -4 10 -10z m47 4 c-3 -3 -12 -4 -19 -1 -8 3 -5 6 6 6 11 1 17 -2
13 -5z m71 0 c27 -8 29 -24 3 -24 -26 0 -51 10 -51 21 0 10 16 11 48 3z
m-1359 -43 c14 -10 34 -21 44 -24 10 -4 15 -11 12 -17 -3 -5 1 -10 9 -10 20 0
21 -16 1 -24 -8 -3 -12 -12 -9 -20 6 -17 -33 -47 -52 -39 -21 8 -49 -24 -35
-41 13 -16 -5 -26 -44 -26 -31 0 -43 20 -16 27 27 7 27 23 1 23 -14 0 -20 7
-20 23 0 34 -11 67 -22 67 -7 0 -9 -18 -6 -45 5 -41 4 -45 -16 -45 -12 0 -27
9 -34 20 -7 12 -8 20 -2 20 13 0 13 33 0 46 -7 7 -7 20 1 42 11 33 20 36 113
40 33 1 57 -4 75 -17z m1328 -16 c8 -9 12 -19 8 -23 -4 -4 -10 -1 -12 6 -3 6
-13 12 -24 12 -10 0 -19 5 -19 10 0 15 30 12 47 -5z m-87 -5 c0 -5 -7 -10 -15
-10 -8 0 -15 5 -15 10 0 6 7 10 15 10 8 0 15 -4 15 -10z m-132 -11 c-2 -6 -8
-10 -13 -10 -5 0 -11 4 -13 10 -2 6 4 11 13 11 9 0 15 -5 13 -11z m-1321 -15
c3 -8 0 -21 -6 -27 -10 -9 -16 -8 -26 7 -8 10 -12 23 -9 27 9 15 34 10 41 -7z
m1503 -4 c0 -13 -11 -13 -30 0 -12 8 -11 10 8 10 12 0 22 -4 22 -10z m-50 -20
c0 -5 -7 -10 -15 -10 -8 0 -15 5 -15 10 0 6 7 10 15 10 8 0 15 -4 15 -10z
m100 0 c0 -5 -7 -10 -15 -10 -8 0 -15 5 -15 10 0 6 7 10 15 10 8 0 15 -4 15
-10z m-55 -20 c3 -5 -1 -10 -9 -10 -9 0 -16 5 -16 10 0 6 4 10 9 10 6 0 13 -4
16 -10z m-1500 -10 c3 -5 -3 -10 -15 -10 -12 0 -18 5 -15 10 3 6 10 10 15 10
5 0 12 -4 15 -10z m1455 -20 c0 -5 -7 -10 -15 -10 -8 0 -15 5 -15 10 0 6 7 10
15 10 8 0 15 -4 15 -10z m50 -40 c0 -5 -4 -10 -9 -10 -6 0 -13 5 -16 10 -3 6
1 10 9 10 9 0 16 -4 16 -10z m90 1 c0 -13 -20 -18 -49 -13 -23 5 -24 6 -6 13
28 11 55 11 55 0z m-1510 -26 c0 -8 -9 -15 -20 -15 -11 0 -20 7 -20 15 0 8 9
15 20 15 11 0 20 -7 20 -15z m1370 -15 c0 -5 -7 -10 -15 -10 -8 0 -15 5 -15
10 0 6 7 10 15 10 8 0 15 -4 15 -10z m50 0 c0 -5 -7 -10 -16 -10 -8 0 -12 5
-9 10 3 6 10 10 16 10 5 0 9 -4 9 -10z m50 0 c0 -5 -7 -10 -15 -10 -8 0 -15 5
-15 10 0 6 7 10 15 10 8 0 15 -4 15 -10z m-56 -41 c-3 -5 -10 -7 -15 -3 -5 3
-7 10 -3 15 3 5 10 7 15 3 5 -3 7 -10 3 -15z m-44 -29 c0 -5 -7 -10 -16 -10
-8 0 -12 5 -9 10 3 6 10 10 16 10 5 0 9 -4 9 -10z m0 -40 c0 -5 -7 -10 -15
-10 -8 0 -15 5 -15 10 0 6 7 10 15 10 8 0 15 -4 15 -10z m-5 -40 c3 -5 -1 -10
-9 -10 -9 0 -16 5 -16 10 0 6 4 10 9 10 6 0 13 -4 16 -10z m55 0 c0 -5 -4 -10
-10 -10 -5 0 -10 5 -10 10 0 6 5 10 10 10 6 0 10 -4 10 -10z m-40 -40 c0 -5
-9 -10 -21 -10 -11 0 -17 5 -14 10 3 6 13 10 21 10 8 0 14 -4 14 -10z m10 -88
c0 -14 -11 -21 -26 -15 -21 8 -17 23 6 23 11 0 20 -4 20 -8z m-9 -97 c-1 -15
-24 -12 -29 3 -3 9 2 13 12 10 10 -1 17 -7 17 -13z m19 -85 c0 -5 -9 -10 -20
-10 -11 0 -20 5 -20 10 0 6 9 10 20 10 11 0 20 -4 20 -10z m50 0 c0 -5 -7 -10
-15 -10 -8 0 -15 5 -15 10 0 6 7 10 15 10 8 0 15 -4 15 -10z m78 -70 c24 0 33
-3 30 -12 -4 -9 -21 -12 -59 -9 -60 3 -64 5 -54 21 4 7 16 9 29 5 11 -4 36 -6
54 -5z m57 -10 c3 -5 1 -10 -4 -10 -6 0 -11 5 -11 10 0 6 2 10 4 10 3 0 8 -4
11 -10z"/>
<path d="M1045 3000 c28 -12 45 -12 45 0 0 6 -15 10 -32 9 -28 0 -30 -2 -13
-9z"/>
<path d="M1125 3000 c-3 -5 1 -10 10 -10 9 0 13 5 10 10 -3 6 -8 10 -10 10 -2
0 -7 -4 -10 -10z"/>
<path d="M1205 3000 c-19 -8 -19 -9 3 -9 12 -1 22 4 22 9 0 6 -1 10 -2 9 -2 0
-12 -4 -23 -9z"/>
<path d="M1260 3000 c0 -5 7 -10 16 -10 8 0 12 5 9 10 -3 6 -10 10 -16 10 -5
0 -9 -4 -9 -10z"/>
<path d="M872 2559 c1 -12 9 -24 16 -27 9 -3 13 3 10 19 -1 12 -9 24 -16 27
-9 3 -13 -3 -10 -19z"/>
<path d="M760 2545 c0 -8 7 -15 15 -15 8 0 15 7 15 15 0 8 -7 15 -15 15 -8 0
-15 -7 -15 -15z"/>
<path d="M555 2190 c3 -5 15 -10 26 -10 10 0 19 5 19 10 0 6 -12 10 -26 10
-14 0 -23 -4 -19 -10z"/>
<path d="M846 2171 c-4 -5 -2 -12 3 -15 5 -4 12 -2 15 3 4 5 2 12 -3 15 -5 4
-12 2 -15 -3z"/>
<path d="M1054 2095 c-18 -14 -17 -14 15 -15 29 0 32 2 21 15 -15 18 -12 18
-36 0z"/>
<path d="M730 2091 c0 -4 -23 -7 -50 -5 -28 1 -48 -1 -45 -6 5 -9 111 -8 120
2 3 3 -1 8 -10 11 -8 4 -15 3 -15 -2z"/>
<path d="M770 2085 c0 -8 6 -15 14 -15 22 0 28 17 10 24 -22 9 -24 8 -24 -9z"/>
<path d="M825 2091 c-8 -14 8 -21 34 -14 17 4 19 8 9 14 -17 11 -35 11 -43 0z"/>
<path d="M930 2090 c0 -5 12 -10 28 -10 21 0 24 2 12 10 -20 13 -40 13 -40 0z"/>
<path d="M530 2080 c0 -5 5 -10 10 -10 6 0 10 5 10 10 0 6 -4 10 -10 10 -5 0
-10 -4 -10 -10z"/>
<path d="M575 2080 c-3 -5 1 -10 9 -10 9 0 16 5 16 10 0 6 -4 10 -9 10 -6 0
-13 -4 -16 -10z"/>
<path d="M826 2024 c-23 -23 -11 -33 38 -31 38 2 42 4 33 19 -6 9 -14 15 -18
12 -4 -2 -10 0 -14 6 -9 14 -21 12 -39 -6z"/>
<path d="M932 2015 c-7 -8 -9 -15 -5 -16 53 -6 94 -5 99 2 3 5 -11 9 -30 9
-20 0 -36 5 -36 10 0 14 -13 12 -28 -5z"/>
<path d="M1055 2010 c-8 -13 20 -24 36 -15 8 6 7 10 -2 16 -18 11 -26 11 -34
-1z"/>
<path d="M325 1900 c-3 -5 -1 -10 4 -10 6 0 11 5 11 10 0 6 -2 10 -4 10 -3 0
-8 -4 -11 -10z"/>
<path d="M227 1713 c-12 -11 -8 -23 8 -23 8 0 15 7 15 15 0 16 -12 20 -23 8z"/>
<path d="M320 1695 c0 -8 7 -15 15 -15 8 0 15 7 15 15 0 8 -7 15 -15 15 -8 0
-15 -7 -15 -15z"/>
<path d="M2865 2080 c-3 -5 1 -10 10 -10 9 0 13 5 10 10 -3 6 -8 10 -10 10 -2
0 -7 -4 -10 -10z"/>
<path d="M2930 2080 c0 -5 5 -10 11 -10 5 0 7 5 4 10 -3 6 -8 10 -11 10 -2 0
-4 -4 -4 -10z"/>
<path d="M3050 2080 c0 -5 5 -10 11 -10 5 0 7 5 4 10 -3 6 -8 10 -11 10 -2 0
-4 -4 -4 -10z"/>
<path d="M3015 2061 c-3 -5 -1 -12 5 -16 5 -3 10 1 10 9 0 18 -6 21 -15 7z"/>
<path d="M3482 1668 c6 -18 28 -21 28 -4 0 9 -7 16 -16 16 -9 0 -14 -5 -12
-12z"/>
<path d="M1770 1510 c0 -5 5 -10 10 -10 6 0 10 5 10 10 0 6 -4 10 -10 10 -5 0
-10 -4 -10 -10z"/>
<path d="M1685 1230 c-3 -5 1 -10 9 -10 9 0 16 5 16 10 0 6 -4 10 -9 10 -6 0
-13 -4 -16 -10z"/>
<path d="M2310 910 c0 -5 7 -10 15 -10 8 0 15 5 15 10 0 6 -7 10 -15 10 -8 0
-15 -4 -15 -10z"/>
<path d="M2340 560 c0 -5 15 -10 33 -10 24 0 28 3 17 10 -20 13 -50 13 -50 0z"/>
<path d="M2345 210 c-3 -5 -1 -10 4 -10 6 0 11 5 11 10 0 6 -2 10 -4 10 -3 0
-8 -4 -11 -10z"/>
<path d="M857 794 c-8 -8 1 -24 14 -24 5 0 9 7 9 15 0 15 -12 20 -23 9z"/>
<path d="M988 773 c7 -3 16 -2 19 1 4 3 -2 6 -13 5 -11 0 -14 -3 -6 -6z"/>
<path d="M980 719 c0 -24 23 -21 28 4 2 10 -3 17 -12 17 -10 0 -16 -9 -16 -21z"/>
<path d="M2105 3440 c3 -5 8 -10 11 -10 2 0 4 5 4 10 0 6 -5 10 -11 10 -5 0
-7 -4 -4 -10z"/>
<path d="M2165 3410 c-3 -5 1 -10 10 -10 9 0 13 5 10 10 -3 6 -8 10 -10 10 -2
0 -7 -4 -10 -10z"/>
<path d="M1877 3340 c6 -24 38 -27 47 -4 9 23 8 24 -23 24 -24 0 -28 -3 -24
-20z"/>
<path d="M2018 3343 c7 -3 16 -2 19 1 4 3 -2 6 -13 5 -11 0 -14 -3 -6 -6z"/>
<path d="M2020 3311 c0 -11 26 -22 34 -14 3 3 3 10 0 14 -7 12 -34 11 -34 0z"/>
<path d="M1880 3245 c0 -8 9 -15 20 -15 11 0 20 7 20 15 0 8 -9 15 -20 15 -11
0 -20 -7 -20 -15z"/>
<path d="M1876 3161 c-7 -11 22 -23 35 -15 5 3 9 9 9 15 0 12 -37 12 -44 0z"/>
<path d="M1882 3083 c-17 -7 -5 -23 19 -23 10 0 19 7 19 15 0 15 -14 18 -38 8z"/>
<path d="M1790 2993 c1 -19 16 -31 29 -24 7 5 10 14 7 20 -8 12 -36 15 -36 4z"/>
<path d="M1887 2994 c-9 -10 2 -24 19 -24 8 0 14 7 14 15 0 15 -21 21 -33 9z"/>
<path d="M2012 2630 c-7 -11 -8 -21 -2 -25 5 -3 14 3 20 14 13 26 -2 35 -18
11z"/>
<path d="M2035 2590 c4 -6 11 -8 16 -5 14 9 11 15 -7 15 -8 0 -12 -5 -9 -10z"/>
<path d="M2134 2376 c-11 -29 0 -51 26 -51 21 0 25 5 25 30 0 24 -5 31 -23 33
-13 2 -24 -3 -28 -12z"/>
<path d="M2260 2366 c0 -40 31 -59 84 -51 75 12 50 57 -36 68 -45 6 -48 5 -48
-17z"/>
<path d="M2004 2329 c-3 -6 -2 -15 4 -21 13 -13 32 -2 32 18 0 16 -26 19 -36
3z"/>
<path d="M2340 2241 c-17 -5 -26 -15 -28 -33 -3 -22 5 -30 63 -62 92 -51 95
-50 95 34 l0 70 -52 -1 c-29 -1 -64 -4 -78 -8z"/>
<path d="M1875 2070 c3 -5 11 -10 16 -10 6 0 7 5 4 10 -3 6 -11 10 -16 10 -6
0 -7 -4 -4 -10z"/>
<path d="M2830 1580 c0 -5 5 -10 10 -10 6 0 10 5 10 10 0 6 -4 10 -10 10 -5 0
-10 -4 -10 -10z"/>
<path d="M3046 1295 c-3 -9 0 -15 9 -15 16 0 20 16 6 24 -5 3 -11 -1 -15 -9z"/>
<path d="M3162 1273 c5 -25 28 -28 28 -4 0 12 -6 21 -16 21 -9 0 -14 -7 -12
-17z"/>
</g>
</svg>
