{
	"asset":{
		"generator":"Khronos glTF Blender I/O v4.3.47",
		"version":"2.0"
	},
	"scene":0,
	"scenes":[
		{
			"name":"Scene",
			"nodes":[
				0,
				1,
				3
			]
		}
	],
	"nodes":[
		{
			"name":"world"
		},
		{
			"name":"world.001"
		},
		{
			"mesh":0,
			"name":"tmptjomjl3n.ply"
		},
		{
			"children":[
				2
			],
			"name":"world.002",
			"rotation":[
				0,
				0,
				-0.43803268671035767,
				0.8989590406417847
			]
		}
	],
	"meshes":[
		{
			"name":"tmptjomjl3n.ply",
			"primitives":[
				{
					"attributes":{
						"POSITION":0,
						"NORMAL":1
					},
					"indices":2
				}
			]
		}
	],
	"accessors":[
		{
			"bufferView":0,
			"componentType":5126,
			"count":119960,
			"max":[
				0.8123456239700317,
				0.9946961402893066,
				0.12197263538837433
			],
			"min":[
				-0.8303290605545044,
				-0.9989277124404907,
				-0.14328056573867798
			],
			"type":"VEC3"
		},
		{
			"bufferView":1,
			"componentType":5126,
			"count":119960,
			"type":"VEC3"
		},
		{
			"bufferView":2,
			"componentType":5125,
			"count":120000,
			"type":"SCALAR"
		}
	],
	"bufferViews":[
		{
			"buffer":0,
			"byteLength":1439520,
			"byteOffset":0,
			"target":34962
		},
		{
			"buffer":0,
			"byteLength":1439520,
			"byteOffset":1439520,
			"target":34962
		},
		{
			"buffer":0,
			"byteLength":480000,
			"byteOffset":2879040,
			"target":34963
		}
	],
	"buffers":[
		{
			"byteLength":3359040,
			"uri":"smg.bin"
		}
	]
}
