{
	"asset":{
		"generator":"Khronos glTF Blender I/O v4.3.47",
		"version":"2.0"
	},
	"scene":0,
	"scenes":[
		{
			"name":"Scene",
			"nodes":[
				1
			]
		}
	],
	"nodes":[
		{
			"mesh":0,
			"name":"tmpv94ohol_.ply",
			"translation":[
				-0.5242215991020203,
				0,
				0
			]
		},
		{
			"children":[
				0
			],
			"name":"world"
		}
	],
	"meshes":[
		{
			"name":"tmpv94ohol_.ply",
			"primitives":[
				{
					"attributes":{
						"POSITION":0,
						"NORMAL":1
					},
					"indices":2
				}
			]
		}
	],
	"accessors":[
		{
			"bufferView":0,
			"componentType":5126,
			"count":119924,
			"max":[
				0.9899424314498901,
				0.6113856434822083,
				0.15709444880485535
			],
			"min":[
				-0.9975419640541077,
				-0.6222089529037476,
				-0.15236958861351013
			],
			"type":"VEC3"
		},
		{
			"bufferView":1,
			"componentType":5126,
			"count":119924,
			"type":"VEC3"
		},
		{
			"bufferView":2,
			"componentType":5125,
			"count":120000,
			"type":"SCALAR"
		}
	],
	"bufferViews":[
		{
			"buffer":0,
			"byteLength":1439088,
			"byteOffset":0,
			"target":34962
		},
		{
			"buffer":0,
			"byteLength":1439088,
			"byteOffset":1439088,
			"target":34962
		},
		{
			"buffer":0,
			"byteLength":480000,
			"byteOffset":2878176,
			"target":34963
		}
	],
	"buffers":[
		{
			"byteLength":3358176,
			"uri":"untitled.bin"
		}
	]
}
