{
	"asset":{
		"generator":"Khronos glTF Blender I/O v4.3.47",
		"version":"2.0"
	},
	"scene":0,
	"scenes":[
		{
			"name":"Scene",
			"nodes":[
				1
			]
		}
	],
	"nodes":[
		{
			"mesh":0,
			"name":"tmp32yhtr1p.ply"
		},
		{
			"children":[
				0
			],
			"name":"world"
		}
	],
	"materials":[
		{
			"name":"Material_0",
			"pbrMetallicRoughness":{
				"baseColorTexture":{
					"index":0
				},
				"roughnessFactor":0.9036020040512085
			}
		}
	],
	"meshes":[
		{
			"name":"tmp32yhtr1p.ply",
			"primitives":[
				{
					"attributes":{
						"POSITION":0,
						"NORMAL":1,
						"TEXCOORD_0":2
					},
					"indices":3,
					"material":0
				}
			]
		}
	],
	"textures":[
		{
			"sampler":0,
			"source":0
		}
	],
	"images":[
		{
			"mimeType":"image/png",
			"name":"Image_0",
			"uri":"Image_0.png"
		}
	],
	"accessors":[
		{
			"bufferView":0,
			"componentType":5126,
			"count":37276,
			"max":[
				0.7232185006141663,
				0.9903851747512817,
				0.9745357632637024
			],
			"min":[
				-0.7702429890632629,
				-0.99818354845047,
				-0.9913997054100037
			],
			"type":"VEC3"
		},
		{
			"bufferView":1,
			"componentType":5126,
			"count":37276,
			"type":"VEC3"
		},
		{
			"bufferView":2,
			"componentType":5126,
			"count":37276,
			"type":"VEC2"
		},
		{
			"bufferView":3,
			"componentType":5123,
			"count":120000,
			"type":"SCALAR"
		}
	],
	"bufferViews":[
		{
			"buffer":0,
			"byteLength":447312,
			"byteOffset":0,
			"target":34962
		},
		{
			"buffer":0,
			"byteLength":447312,
			"byteOffset":447312,
			"target":34962
		},
		{
			"buffer":0,
			"byteLength":298208,
			"byteOffset":894624,
			"target":34962
		},
		{
			"buffer":0,
			"byteLength":240000,
			"byteOffset":1192832,
			"target":34963
		}
	],
	"samplers":[
		{
			"magFilter":9729,
			"minFilter":9987
		}
	],
	"buffers":[
		{
			"byteLength":1432832,
			"uri":"robot.bin"
		}
	]
}
