{
	"asset":{
		"generator":"Khronos glTF Blender I/O v4.3.47",
		"version":"2.0"
	},
	"scene":0,
	"scenes":[
		{
			"name":"Scene",
			"nodes":[
				1
			]
		}
	],
	"nodes":[
		{
			"mesh":0,
			"name":"tmpgtiyxnvi.ply"
		},
		{
			"children":[
				0
			],
			"name":"world",
			"rotation":[
				0,
				0.3713906705379486,
				0,
				0.9284766912460327
			],
			"translation":[
				0,
				1.0425845384597778,
				0
			]
		}
	],
	"materials":[
		{
			"doubleSided":true,
			"name":"Material.001",
			"pbrMetallicRoughness":{
				"baseColorTexture":{
					"index":0
				},
				"metallicFactor":0,
				"roughnessFactor":0.5
			}
		}
	],
	"meshes":[
		{
			"name":"tmpgtiyxnvi.ply",
			"primitives":[
				{
					"attributes":{
						"POSITION":0,
						"NORMAL":1,
						"TEXCOORD_0":2
					},
					"indices":3,
					"material":0
				}
			]
		}
	],
	"textures":[
		{
			"sampler":0,
			"source":0
		}
	],
	"images":[
		{
			"mimeType":"image/jpeg",
			"name":"colorful-background-of-graffiti-painting-artwork-with-bright-aerosol-strips-on-metal-wall-photo",
			"uri":"colorful-background-of-graffiti-painting-artwork-with-bright-aerosol-strips-on-metal-wall-photo.jpg"
		}
	],
	"accessors":[
		{
			"bufferView":0,
			"componentType":5126,
			"count":119984,
			"max":[
				0.40286755561828613,
				0.9918092489242554,
				0.24699081480503082
			],
			"min":[
				-0.4014127850532532,
				-0.9991572499275208,
				-0.27231743931770325
			],
			"type":"VEC3"
		},
		{
			"bufferView":1,
			"componentType":5126,
			"count":119984,
			"type":"VEC3"
		},
		{
			"bufferView":2,
			"componentType":5126,
			"count":119984,
			"type":"VEC2"
		},
		{
			"bufferView":3,
			"componentType":5125,
			"count":120000,
			"type":"SCALAR"
		}
	],
	"bufferViews":[
		{
			"buffer":0,
			"byteLength":1439808,
			"byteOffset":0,
			"target":34962
		},
		{
			"buffer":0,
			"byteLength":1439808,
			"byteOffset":1439808,
			"target":34962
		},
		{
			"buffer":0,
			"byteLength":959872,
			"byteOffset":2879616,
			"target":34962
		},
		{
			"buffer":0,
			"byteLength":480000,
			"byteOffset":3839488,
			"target":34963
		}
	],
	"samplers":[
		{
			"magFilter":9729,
			"minFilter":9987
		}
	],
	"buffers":[
		{
			"byteLength":4319488,
			"uri":"graffiti_mech.bin"
		}
	]
}
